<svg width="63" height="63" viewBox="0 0 63 63" fill="none" xmlns="http://www.w3.org/2000/svg">
    <g clip-path="url(#clip0_1123_5031)">
        <path
            d="M56.1117 63.0419H43.7292L32.0379 54.4461L20.5348 63.0419H7.92578L32.1061 21.4736L56.1117 63.0419ZM45.2253 58.5097H48.2475L32.0924 30.538L15.82 58.5097H19.0214L32.0178 48.7981L45.2253 58.5097Z"
            fill="white" />
        <path
            d="M52.6317 32.154C52.6334 36.1082 51.4869 39.9785 49.3303 43.2977L46.5564 38.9676C47.5633 36.8377 48.0851 34.5121 48.0843 32.1576C48.0843 23.3479 40.8931 16.1807 32.0539 16.1807C23.2147 16.1807 16.0225 23.3443 16.0225 32.154C16.0193 34.6855 16.621 37.1815 17.7778 39.4353L15.043 43.7065C13.2286 41.0531 12.0645 38.0122 11.6444 34.8286C11.2244 31.645 11.5601 28.4076 12.6246 25.3769C13.6891 22.3462 15.4526 19.6069 17.7731 17.3795C20.0937 15.152 22.9066 13.4987 25.9853 12.5524C29.064 11.6062 32.3227 11.3936 35.4989 11.9316C38.6751 12.4697 41.6803 13.7434 44.2725 15.6502C46.8647 17.5571 48.9715 20.0438 50.4234 22.9103C51.8753 25.7768 52.6317 28.9429 52.6317 32.154Z"
            fill="white" />
        <g opacity="0.3">
            <path
                d="M63.0264 30.9389C63.0305 38.6982 60.1015 46.1742 54.8229 51.8775L52.2763 47.9019C56.2842 43.1531 58.4803 37.1461 58.4771 30.9407C58.479 16.3978 46.6112 4.5743 32.0259 4.5743C17.4406 4.5743 5.57375 16.3978 5.57375 30.9389C5.56169 37.323 7.88489 43.4927 12.1083 48.2926L9.57636 52.2483C6.07573 48.5921 3.52799 44.1362 2.15629 39.2709C0.7846 34.4056 0.630799 29.2793 1.70836 24.341C2.78592 19.4027 5.06198 14.803 8.33717 10.9449C11.6124 7.08678 15.7868 4.0879 20.4948 2.21092C25.2028 0.333943 30.3007 -0.363876 35.3421 0.178588C40.3835 0.721051 45.2146 2.48725 49.4121 5.32248C53.6096 8.15771 57.0456 11.9755 59.4191 16.4414C61.7926 20.9073 63.0312 25.8852 63.0264 30.9389Z"
                fill="white" />
        </g>
    </g>
    <defs>
        <clipPath id="clip0_1123_5031">
            <rect width="63" height="63" fill="white" />
        </clipPath>
    </defs>
</svg>