<svg width="26" height="25" viewBox="0 0 26 25" fill="none" xmlns="http://www.w3.org/2000/svg">
<path d="M2.28554 19.3359V21.8856C2.28554 21.9887 2.32851 22.0831 2.41445 22.1689C2.50016 22.2548 2.59458 22.2978 2.69771 22.2978H23.3019C23.4051 22.2978 23.4995 22.2548 23.5852 22.1689C23.6711 22.0831 23.7141 21.9887 23.7141 21.8856V19.3359H2.28554ZM6.97304 5.5567V3.1356C6.97304 2.45926 7.20741 1.88672 7.67616 1.41797C8.14491 0.949219 8.71757 0.714844 9.39413 0.714844H16.6055C17.2821 0.714844 17.8547 0.949219 18.3235 1.41797C18.7922 1.88672 19.0266 2.45926 19.0266 3.1356V5.5567H23.3019C23.9785 5.5567 24.5512 5.79107 25.0199 6.25982C25.4887 6.72857 25.723 7.30123 25.723 7.97779V21.8856C25.723 22.5622 25.4887 23.1348 25.0199 23.6036C24.5512 24.0723 23.9785 24.3067 23.3019 24.3067H2.69771C2.02114 24.3067 1.44849 24.0723 0.979736 23.6036C0.510986 23.1348 0.276611 22.5622 0.276611 21.8856V7.97779C0.276611 7.30123 0.510986 6.72857 0.979736 6.25982C1.44849 5.79107 2.02114 5.5567 2.69771 5.5567H6.97304ZM2.28554 16.956H23.7141V7.97779C23.7141 7.87466 23.6711 7.78024 23.5852 7.69453C23.4995 7.60859 23.4051 7.56562 23.3019 7.56562H19.0266V9.98672H17.0177V7.56562H8.98197V9.98672H6.97304V7.56562H2.69771C2.59458 7.56562 2.50016 7.60859 2.41445 7.69453C2.32851 7.78024 2.28554 7.87466 2.28554 7.97779V16.956ZM8.98197 5.5567H17.0177V3.1356C17.0177 3.0327 16.9747 2.93828 16.8888 2.85234C16.8031 2.76663 16.7086 2.72377 16.6055 2.72377H9.39413C9.29101 2.72377 9.19659 2.76663 9.11087 2.85234C9.02494 2.93828 8.98197 3.0327 8.98197 3.1356V5.5567ZM2.28554 21.8856V7.56562H2.69771C2.59458 7.56562 2.50016 7.60859 2.41445 7.69453C2.32851 7.78024 2.28554 7.87466 2.28554 7.97779V21.8856C2.28554 21.9887 2.32851 22.0831 2.41445 22.1689C2.50016 22.2548 2.59458 22.2978 2.69771 22.2978H2.28554V21.8856Z" fill="white"/>
</svg>
