<svg width="30" height="30" viewBox="0 0 30 30" fill="none" xmlns="http://www.w3.org/2000/svg">
<path d="M14.3474 28.4006C15.0342 28.4006 15.6927 28.1346 16.1784 27.661C16.664 27.1875 16.9369 26.5452 16.9371 25.8755H11.7578C11.758 26.5452 12.0309 27.1875 12.5165 27.661C13.0021 28.1346 13.6607 28.4006 14.3474 28.4006Z" fill="white"/>
<path d="M25.9016 23.5506C25.9995 23.3198 26.025 23.0658 25.975 22.8209C25.925 22.5759 25.8017 22.351 25.6206 22.1744L23.4102 20.0186V12.9648C23.4078 10.8411 22.6213 8.78922 21.1948 7.18468C19.7683 5.58014 17.7971 4.5302 15.642 4.22698V2.86558C15.642 2.53073 15.5056 2.20959 15.2628 1.97282C15.02 1.73605 14.6908 1.60303 14.3474 1.60303C14.0041 1.60303 13.6748 1.73605 13.4321 1.97282C13.1893 2.20959 13.0529 2.53073 13.0529 2.86558V4.22698C10.8977 4.5302 8.92656 5.58014 7.50006 7.18468C6.07356 8.78922 5.28711 10.8411 5.28463 12.9648V20.0186L3.07431 22.1744C2.89333 22.3509 2.77009 22.5759 2.72017 22.8207C2.67025 23.0656 2.69588 23.3194 2.79383 23.5501C2.89179 23.7807 3.05766 23.9779 3.27048 24.1166C3.48331 24.2554 3.73353 24.3294 3.98951 24.3295H24.7054C24.9614 24.3296 25.2117 24.2556 25.4246 24.117C25.6375 23.9783 25.8035 23.7812 25.9016 23.5506ZM6.69385 22.2483L7.09501 21.8565C7.22268 21.7323 7.32391 21.5846 7.39286 21.4221C7.46181 21.2596 7.49712 21.0853 7.49678 20.9094V12.8914C7.49678 11.1193 8.21854 9.41988 9.50329 8.16685C10.788 6.91383 12.5305 6.20988 14.3474 6.20988C16.1643 6.20988 17.9068 6.91383 19.1916 8.16685C20.4763 9.41988 21.1981 11.1193 21.1981 12.8914V20.9094C21.1978 21.0853 21.2331 21.2596 21.302 21.4221C21.371 21.5846 21.4722 21.7323 21.5999 21.8565L22.001 22.2483H6.69385Z" fill="white"/>
</svg>
