<svg width="36" height="36" viewBox="0 0 36 36" fill="none" xmlns="http://www.w3.org/2000/svg">
<path d="M5 28.9233V25.5884C5 24.8154 5.1995 24.1255 5.5985 23.5188C5.9975 22.912 6.53038 22.44 7.19713 22.1027C8.62263 21.4055 10.056 20.8679 11.4973 20.4899C12.9388 20.1121 12.8027 20.0574 14.2496 20.0188C15.3027 20.0574 15.5608 20.1121 17.002 20.4899C18.4435 20.8679 19.877 21.4055 21.3025 22.1027C21.9693 22.44 22.5021 22.912 22.9011 23.5188C23.3001 24.1255 23.4996 24.8154 23.4996 25.5884V28.9233H5ZM14.2496 17.5C12.8059 17.5 11.57 16.986 10.542 15.958C9.514 14.9297 9 13.6937 9 12.25C9 10.8063 9.514 9.57038 10.542 8.54238C11.57 7.51413 12.8059 7 14.2496 7C15.6934 7 16.9294 7.51413 17.9576 8.54238C18.9856 9.57038 19.4996 10.8063 19.4996 12.25C19.4996 13.6937 18.9856 14.9297 17.9576 15.958C16.9294 16.986 15.6934 17.5 14.2496 17.5ZM7.24962 26.6733H21.2496V25.5884C21.2496 25.2751 21.1713 24.9964 21.0145 24.7521C20.858 24.5079 20.6095 24.2944 20.269 24.1116C19.0345 23.4751 17.7634 22.9929 16.4556 22.6649C15.011 22.3028 13.4886 22.3028 12.044 22.6649C10.7363 22.9929 9.46513 23.4751 8.23063 24.1116C7.89013 24.2944 7.6415 24.5079 7.48475 24.7521C7.328 24.9964 7.24962 25.2751 7.24962 25.5884V26.6733ZM14.2496 15.25C15.0746 15.25 15.7809 14.9563 16.3684 14.3688C16.9559 13.7812 17.2496 13.075 17.2496 12.25C17.2496 11.425 16.9559 10.7188 16.3684 10.1313C15.7809 9.54375 15.0746 9.25 14.2496 9.25C13.4246 9.25 12.7184 9.54375 12.1309 10.1313C11.5434 10.7188 11.2496 11.425 11.2496 12.25C11.2496 13.075 11.5434 13.7812 12.1309 14.3688C12.7184 14.9563 13.4246 15.25 14.2496 15.25Z" fill="#909090"/>
<rect x="26" y="3" width="2" height="11" fill="#909090"/>
<rect x="32.5" y="7.5" width="2" height="11" transform="rotate(90 32.5 7.5)" fill="#909090"/>
</svg>
