<svg width="36" height="36" viewBox="0 0 36 36" fill="none" xmlns="http://www.w3.org/2000/svg">
<path d="M16.8747 17.3797H19.1247V9.36075H16.8747V17.3797ZM17.9997 22.6009C18.343 22.6009 18.6307 22.4847 18.863 22.2525C19.0952 22.0205 19.2114 21.7329 19.2114 21.3896C19.2114 21.0461 19.0952 20.7584 18.863 20.5264C18.6307 20.2941 18.343 20.178 17.9997 20.178C17.6565 20.178 17.3687 20.2941 17.1365 20.5264C16.9042 20.7584 16.7881 21.0461 16.7881 21.3896C16.7881 21.7329 16.9042 22.0205 17.1365 22.2525C17.3687 22.4847 17.6565 22.6009 17.9997 22.6009ZM17.9997 29.2702C20.9342 26.6432 23.1799 24.1235 24.7366 21.711C26.2934 19.2985 27.0717 17.1855 27.0717 15.372C27.0717 12.6375 26.203 10.3895 24.4655 8.628C22.728 6.8665 20.5727 5.98575 17.9997 5.98575C15.4267 5.98575 13.2715 6.8665 11.534 8.628C9.79648 10.3895 8.92773 12.6375 8.92773 15.372C8.92773 17.1855 9.70611 19.2985 11.2629 21.711C12.8196 24.1235 15.0652 26.6432 17.9997 29.2702ZM17.9997 32.2642C14.2247 28.9932 11.394 25.9491 9.50748 23.1319C7.62098 20.3144 6.67773 17.7277 6.67773 15.372C6.67773 11.9105 7.79736 9.10812 10.0366 6.96487C12.2761 4.82162 14.9305 3.75 17.9997 3.75C21.069 3.75 23.7234 4.82162 25.9629 6.96487C28.2021 9.10812 29.3217 11.9105 29.3217 15.372C29.3217 17.7277 28.3785 20.3144 26.492 23.1319C24.6055 25.9491 21.7747 28.9932 17.9997 32.2642Z" fill="#909090"/>
</svg>
