<svg width="35" height="35" viewBox="0 0 35 35" fill="none" xmlns="http://www.w3.org/2000/svg">
<g clip-path="url(#clip0_2990_8218)">
<path d="M24.741 33.7376H29.0009L17.8952 14.443L6.70947 33.7376H11.08L17.8554 28.6583L24.741 33.7376Z" stroke="white" stroke-width="2.515" stroke-miterlimit="10"/>
<path d="M29.2516 17.8548C29.2526 20.0491 28.6184 22.1968 27.4257 24.0386L25.8916 21.6358C26.4484 20.4539 26.737 19.1634 26.7366 17.8568C26.7366 12.9681 22.7594 8.99091 17.8707 8.99091C12.9821 8.99091 9.00436 12.9661 9.00436 17.8548C9.00261 19.2596 9.33538 20.6447 9.97515 21.8954L8.46263 24.2655C7.45913 22.7931 6.81531 21.1056 6.583 19.339C6.35069 17.5723 6.53636 15.7758 7.12509 14.094C7.71381 12.4122 8.68914 10.8922 9.97257 9.6561C11.256 8.42005 12.8117 7.50256 14.5144 6.97749C16.2172 6.45241 18.0194 6.33441 19.7761 6.63298C21.5327 6.93155 23.1948 7.63836 24.6284 8.69651C26.062 9.75466 27.2273 11.1346 28.0302 12.7253C28.8332 14.3159 29.2516 16.0729 29.2516 17.8548Z" fill="white"/>
<g opacity="0.3">
<path d="M34.9999 17.1802C35.0022 21.486 33.3822 25.6346 30.4628 28.7995L29.0544 26.5933C31.271 23.9581 32.4856 20.6247 32.4839 17.1812C32.4849 9.11109 25.9212 2.54997 17.8546 2.54997C9.78803 2.54997 3.22489 9.11109 3.22489 17.1802C3.21822 20.7229 4.5031 24.1466 6.83894 26.8101L5.43859 29.0052C3.50252 26.9763 2.09345 24.5037 1.33482 21.8038C0.576182 19.104 0.491121 16.2593 1.08708 13.5189C1.68304 10.7785 2.94185 8.22609 4.75324 6.08514C6.56463 3.9442 8.87334 2.28006 11.4772 1.23848C14.081 0.196909 16.9005 -0.190325 19.6887 0.110699C22.4769 0.411723 25.1488 1.39182 27.4703 2.96515C29.7918 4.53847 31.6922 6.65703 33.0048 9.13526C34.3175 11.6135 35.0025 14.3758 34.9999 17.1802Z" fill="white"/>
</g>
</g>
<defs>
<clipPath id="clip0_2990_8218">
<rect width="34.29" height="34.96" fill="white" transform="translate(0.709961 0.0350342)"/>
</clipPath>
</defs>
</svg>
