<svg width="27" height="27" viewBox="0 0 27 27" fill="none" xmlns="http://www.w3.org/2000/svg">
<g clip-path="url(#clip0_1097_2931)">
<path d="M18.5613 0C17.1218 0.0995625 15.4394 1.02094 14.459 2.22075C13.5646 3.30919 12.8288 4.92581 13.1157 6.49687C14.6885 6.54581 16.3135 5.6025 17.2552 4.38244C18.136 3.24675 18.8026 1.64025 18.5613 0Z" fill="white"/>
<path d="M24.2497 9.0585C22.8677 7.32545 20.9254 6.3197 19.0911 6.3197C16.6695 6.3197 15.6452 7.47901 13.9628 7.47901C12.2281 7.47901 10.9101 6.32308 8.81595 6.32308C6.7589 6.32308 4.56854 7.58026 3.17974 9.73012C1.22731 12.7575 1.56143 18.4494 4.72548 23.2975C5.85778 25.0323 7.36977 26.983 9.34751 26.9999C11.1076 27.0168 11.6037 25.871 13.9881 25.8591C16.3725 25.8457 16.8248 27.0151 18.5815 26.9965C20.5609 26.9813 22.1556 24.8197 23.2879 23.0849C24.0996 21.8412 24.4016 21.2152 25.031 19.8112C20.4529 18.068 19.7188 11.5577 24.2497 9.0585Z" fill="white"/>
</g>
<defs>
<clipPath id="clip0_1097_2931">
<rect width="27" height="27" fill="white"/>
</clipPath>
</defs>
</svg>
