<svg width="31" height="31" viewBox="0 0 31 31" fill="none" xmlns="http://www.w3.org/2000/svg">
<path d="M23.1875 21.1094C23.1875 23.276 22.4271 25.1198 20.9062 26.6406C19.3854 28.1615 17.5417 28.9219 15.375 28.9219C13.2083 28.9219 11.3646 28.1615 9.84375 26.6406C8.32292 25.1198 7.5625 23.276 7.5625 21.1094V9.54688C7.5625 7.98438 8.10938 6.65625 9.20312 5.5625C10.2969 4.46875 11.625 3.92188 13.1875 3.92188C14.75 3.92188 16.0781 4.46875 17.1719 5.5625C18.2656 6.65625 18.8125 7.98438 18.8125 9.54688V20.4844C18.8125 21.4427 18.4792 22.2552 17.8125 22.9219C17.1458 23.5885 16.3333 23.9219 15.375 23.9219C14.4167 23.9219 13.6042 23.5885 12.9375 22.9219C12.2708 22.2552 11.9375 21.4427 11.9375 20.4844V8.92188H14.4375V20.4844C14.4375 20.7552 14.526 20.9792 14.7031 21.1562C14.8802 21.3333 15.1042 21.4219 15.375 21.4219C15.6458 21.4219 15.8698 21.3333 16.0469 21.1562C16.224 20.9792 16.3125 20.7552 16.3125 20.4844V9.54688C16.2917 8.67188 15.9844 7.93229 15.3906 7.32812C14.7969 6.72396 14.0625 6.42188 13.1875 6.42188C12.3125 6.42188 11.5729 6.72396 10.9688 7.32812C10.3646 7.93229 10.0625 8.67188 10.0625 9.54688V21.1094C10.0417 22.5885 10.5521 23.8438 11.5938 24.875C12.6354 25.9062 13.8958 26.4219 15.375 26.4219C16.8333 26.4219 18.0729 25.9062 19.0938 24.875C20.1146 23.8438 20.6458 22.5885 20.6875 21.1094V8.92188H23.1875V21.1094Z" fill="white"/>
</svg>
