<svg width="38" height="38" viewBox="0 0 38 38" fill="none" xmlns="http://www.w3.org/2000/svg">
<circle cx="18.6429" cy="19.2718" r="18.6429" fill="black"/>
<circle cx="18.6426" cy="19.272" r="14.7857" fill="white"/>
<g clip-path="url(#clip0_365_14070)">
<path d="M25.3 13.6667H24.7969C24.6079 13.6667 24.4237 13.608 24.2704 13.4989C24.1171 13.3898 24.0025 13.2357 23.9428 13.0587L23.8636 12.8231C23.6849 12.2922 23.3415 11.8304 22.882 11.5031C22.4226 11.1759 21.8705 10.9998 21.304 11H16.696C16.1291 10.9998 15.5765 11.1761 15.1167 11.5036C14.6569 11.8312 14.3133 12.2935 14.1346 12.8249L14.0554 13.0587C13.9961 13.2355 13.8819 13.3893 13.7291 13.4984C13.5763 13.6076 13.3926 13.6664 13.204 13.6667H12.7C11.9841 13.6674 11.2978 13.9486 10.7916 14.4485C10.2854 14.9484 10.0007 15.6263 10 16.3333V24.3333C10.0007 25.0404 10.2854 25.7182 10.7916 26.2182C11.2978 26.7181 11.9841 26.9993 12.7 27H25.3C26.0159 26.9993 26.7022 26.7181 27.2084 26.2182C27.7146 25.7182 27.9993 25.0404 28 24.3333V16.3333C27.9993 15.6263 27.7146 14.9484 27.2084 14.4485C26.7022 13.9486 26.0159 13.6674 25.3 13.6667ZM26.2 24.3333C26.2 24.5691 26.1052 24.7952 25.9364 24.9619C25.7676 25.1286 25.5387 25.2222 25.3 25.2222H12.7C12.4614 25.222 12.2326 25.1283 12.0639 24.9616C11.8951 24.795 11.8002 24.569 11.8 24.3333V16.3333C11.8002 16.0977 11.8951 15.8717 12.0639 15.7051C12.2326 15.5384 12.4614 15.4447 12.7 15.4444H13.2031C13.77 15.4446 14.3226 15.2684 14.7824 14.9408C15.2422 14.6132 15.5858 14.1509 15.7645 13.6196L15.8437 13.3858C15.9031 13.2088 16.0174 13.0549 16.1704 12.9457C16.3234 12.8366 16.5073 12.7778 16.696 12.7778H21.3022C21.4909 12.7775 21.6748 12.836 21.828 12.9448C21.9811 13.0536 22.0957 13.2073 22.1554 13.384L22.2346 13.6196V13.6213C22.4135 14.1528 22.7574 14.6151 23.2176 14.9424C23.6778 15.2697 24.2307 15.4454 24.7978 15.4444H25.3C25.5387 15.4444 25.7676 15.5381 25.9364 15.7048C26.1052 15.8715 26.2 16.0976 26.2 16.3333V24.3333ZM19 16.3333C18.288 16.3333 17.592 16.5419 16.9999 16.9326C16.4079 17.3232 15.9465 17.8785 15.674 18.5282C15.4016 19.1779 15.3303 19.8928 15.4692 20.5825C15.6081 21.2723 15.9509 21.9058 16.4544 22.403C16.9579 22.9003 17.5993 23.2389 18.2977 23.3761C18.996 23.5133 19.7198 23.4429 20.3777 23.1738C21.0355 22.9047 21.5977 22.449 21.9933 21.8642C22.3889 21.2795 22.6 20.5921 22.6 19.8889C22.599 18.9462 22.2195 18.0424 21.5445 17.3758C20.8696 16.7092 19.9545 16.3343 19 16.3333ZM19 21.6667C18.644 21.6667 18.296 21.5624 18 21.3671C17.704 21.1717 17.4733 20.8941 17.337 20.5692C17.2008 20.2444 17.1651 19.8869 17.2346 19.5421C17.304 19.1972 17.4755 18.8804 17.7272 18.6318C17.9789 18.3832 18.2997 18.2139 18.6488 18.1453C18.998 18.0767 19.3599 18.1119 19.6888 18.2464C20.0177 18.381 20.2989 18.6089 20.4966 18.9012C20.6944 19.1936 20.8 19.5373 20.8 19.8889C20.7995 20.3602 20.6097 20.8122 20.2723 21.1454C19.9348 21.4787 19.4772 21.6662 19 21.6667Z" fill="black"/>
</g>
<defs>
<clipPath id="clip0_365_14070">
<rect width="17.9999" height="17.9999" fill="white" transform="translate(10 10)"/>
</clipPath>
</defs>
</svg>
