<svg width="20" height="20" viewBox="0 0 20 20" fill="none" xmlns="http://www.w3.org/2000/svg">
<path d="M5.12516 11.5892H11.9377V10.1934H5.12516V11.5892ZM5.12516 7.88086H14.8752V6.48503H5.12516V7.88086ZM2.2085 18.3809V4.27669C2.2085 3.8928 2.34516 3.56419 2.6185 3.29086C2.89183 3.01753 3.22044 2.88086 3.60433 2.88086H16.396C16.7799 2.88086 17.1085 3.01753 17.3818 3.29086C17.6552 3.56419 17.7918 3.8928 17.7918 4.27669V14.11C17.7918 14.4939 17.6552 14.8225 17.3818 15.0959C17.1085 15.3692 16.7799 15.5059 16.396 15.5059H5.0835L2.2085 18.3809ZM4.51058 14.11H16.396V4.27669H3.60433V15.0267L4.51058 14.11Z" fill="white"/>
</svg>
