<svg width="46" height="46" viewBox="0 0 46 46" fill="none" xmlns="http://www.w3.org/2000/svg">
<path d="M23.0003 32.8041C25.1997 32.8041 27.0641 32.0394 28.5936 30.5099C30.1231 28.9804 30.8879 27.116 30.8879 24.9166C30.8879 22.7172 30.1231 20.8528 28.5936 19.3233C27.0641 17.7938 25.1997 17.029 23.0003 17.029C20.8009 17.029 18.9365 17.7938 17.407 19.3233C15.8775 20.8528 15.1128 22.7172 15.1128 24.9166C15.1128 27.116 15.8775 28.9804 17.407 30.5099C18.9365 32.0394 20.8009 32.8041 23.0003 32.8041ZM23.0003 29.9296C21.5849 29.9296 20.3956 29.4479 19.4324 28.4845C18.469 27.5213 17.9873 26.332 17.9873 24.9166C17.9873 23.5011 18.469 22.3118 19.4324 21.3487C20.3956 20.3853 21.5849 19.9035 23.0003 19.9035C24.4158 19.9035 25.6051 20.3853 26.5682 21.3487C27.5316 22.3118 28.0134 23.5011 28.0134 24.9166C28.0134 26.332 27.5316 27.5213 26.5682 28.4845C25.6051 29.4479 24.4158 29.9296 23.0003 29.9296ZM8.25685 39.2916C7.28861 39.2916 6.46908 38.9562 5.79824 38.2853C5.12741 37.6145 4.79199 36.795 4.79199 35.8267V14.0064C4.79199 13.0382 5.12741 12.2187 5.79824 11.5478C6.46908 10.877 7.28861 10.5416 8.25685 10.5416H14.1099L17.6557 6.70825H28.3449L31.8908 10.5416H37.7438C38.712 10.5416 39.5316 10.877 40.2024 11.5478C40.8732 12.2187 41.2087 13.0382 41.2087 14.0064V35.8267C41.2087 36.795 40.8732 37.6145 40.2024 38.2853C39.5316 38.9562 38.712 39.2916 37.7438 39.2916H8.25685ZM8.25685 36.4166H37.7438C37.916 36.4166 38.0573 36.3613 38.1679 36.2508C38.2784 36.1403 38.3337 35.9989 38.3337 35.8267V14.0064C38.3337 13.8343 38.2784 13.6929 38.1679 13.5824C38.0573 13.4719 37.916 13.4166 37.7438 13.4166H30.6081L27.0914 9.58325H18.9092L15.3926 13.4166H8.25685C8.08467 13.4166 7.94331 13.4719 7.83278 13.5824C7.72226 13.6929 7.66699 13.8343 7.66699 14.0064V35.8267C7.66699 35.9989 7.72226 36.1403 7.83278 36.2508C7.94331 36.3613 8.08467 36.4166 8.25685 36.4166Z" fill="white"/>
</svg>
