<svg width="36" height="36" viewBox="0 0 36 36" fill="none" xmlns="http://www.w3.org/2000/svg">
<path d="M8.8125 32.625C8.039 32.625 7.37688 32.3496 6.82612 31.7989C6.27537 31.2481 6 30.586 6 29.8125V15.0375C6 14.264 6.27537 13.6019 6.82612 13.0511C7.37688 12.5004 8.039 12.225 8.8125 12.225H10.425V9.30788C10.425 7.29013 11.1281 5.57813 12.5344 4.17188C13.9406 2.76563 15.65 2.0625 17.6625 2.0625C19.675 2.0625 21.3844 2.76563 22.7906 4.17188C24.1969 5.57813 24.9 7.29013 24.9 9.30788V12.225H26.5125C27.286 12.225 27.9481 12.5004 28.4989 13.0511C29.0496 13.6019 29.325 14.264 29.325 15.0375V29.8125C29.325 30.586 29.0496 31.2481 28.4989 31.7989C27.9481 32.3496 27.286 32.625 26.5125 32.625H8.8125ZM8.8125 29.8125H26.5125V15.0375H8.8125V29.8125ZM17.6625 25.3125C18.4565 25.3125 19.1363 25.0298 19.7018 24.4643C20.2673 23.8988 20.55 23.219 20.55 22.425C20.55 21.631 20.2673 20.9513 19.7018 20.3858C19.1363 19.8203 18.4565 19.5375 17.6625 19.5375C16.8685 19.5375 16.1888 19.8203 15.6233 20.3858C15.0578 20.9513 14.775 21.631 14.775 22.425C14.775 23.219 15.0578 23.8988 15.6233 24.4643C16.1888 25.0298 16.8685 25.3125 17.6625 25.3125ZM13.2375 12.225H22.0875V9.29437C22.0875 8.07312 21.6578 7.03125 20.7983 6.16875C19.9388 5.30625 18.895 4.875 17.667 4.875C16.439 4.875 15.3938 5.30525 14.5313 6.16575C13.6688 7.026 13.2375 8.07075 13.2375 9.3V12.225Z" fill="#909090"/>
</svg>
