<svg width="18" height="17" viewBox="0 0 18 17" fill="none" xmlns="http://www.w3.org/2000/svg">
<path d="M16.343 2.725H1.49297C1.27417 2.725 1.06432 2.81192 0.909606 2.96664C0.754888 3.12135 0.667969 3.3312 0.667969 3.55C0.667969 3.7688 0.754888 3.97865 0.909606 4.13336C1.06432 4.28808 1.27417 4.375 1.49297 4.375H3.14297V14.275C3.14297 14.9314 3.40373 15.5609 3.86788 16.0251C4.33203 16.4892 4.96156 16.75 5.61797 16.75H12.218C12.8744 16.75 13.5039 16.4892 13.9681 16.0251C14.4322 15.5609 14.693 14.9314 14.693 14.275V4.375H16.343C16.5618 4.375 16.7716 4.28808 16.9263 4.13336C17.081 3.97865 17.168 3.7688 17.168 3.55C17.168 3.3312 17.081 3.12135 16.9263 2.96664C16.7716 2.81192 16.5618 2.725 16.343 2.725ZM8.09297 11.8C8.09297 12.0188 8.00605 12.2286 7.85133 12.3834C7.69661 12.5381 7.48677 12.625 7.26797 12.625C7.04917 12.625 6.83932 12.5381 6.68461 12.3834C6.52989 12.2286 6.44297 12.0188 6.44297 11.8V7.675C6.44297 7.4562 6.52989 7.24635 6.68461 7.09164C6.83932 6.93692 7.04917 6.85 7.26797 6.85C7.48677 6.85 7.69661 6.93692 7.85133 7.09164C8.00605 7.24635 8.09297 7.4562 8.09297 7.675V11.8ZM11.393 11.8C11.393 12.0188 11.306 12.2286 11.1513 12.3834C10.9966 12.5381 10.7868 12.625 10.568 12.625C10.3492 12.625 10.1393 12.5381 9.98461 12.3834C9.82989 12.2286 9.74297 12.0188 9.74297 11.8V7.675C9.74297 7.4562 9.82989 7.24635 9.98461 7.09164C10.1393 6.93692 10.3492 6.85 10.568 6.85C10.7868 6.85 10.9966 6.93692 11.1513 7.09164C11.306 7.24635 11.393 7.4562 11.393 7.675V11.8ZM7.26797 1.9H10.568C10.7868 1.9 10.9966 1.81308 11.1513 1.65836C11.306 1.50365 11.393 1.2938 11.393 1.075C11.393 0.856196 11.306 0.646354 11.1513 0.491637C10.9966 0.336919 10.7868 0.25 10.568 0.25H7.26797C7.04917 0.25 6.83932 0.336919 6.68461 0.491637C6.52989 0.646354 6.44297 0.856196 6.44297 1.075C6.44297 1.2938 6.52989 1.50365 6.68461 1.65836C6.83932 1.81308 7.04917 1.9 7.26797 1.9Z" fill="white"/>
</svg>
