<svg width="14" height="18" viewBox="0 0 14 18" fill="none" xmlns="http://www.w3.org/2000/svg">
<path fill-rule="evenodd" clip-rule="evenodd" d="M2.64516 1.65743C2.04388 1.65743 1.55645 2.15558 1.55645 2.77007V15.2316C1.55645 15.8461 2.04388 16.3442 2.64516 16.3442H11.3548C11.9561 16.3442 12.4435 15.8461 12.4435 15.2316V6.51919C12.4435 6.22953 12.333 5.95128 12.1354 5.7436L8.56887 1.99447C8.36384 1.779 8.08228 1.65743 7.78823 1.65743H2.64516ZM0.25 2.77007C0.25 1.41819 1.32235 0.322266 2.64516 0.322266H7.78823C8.43522 0.322266 9.05462 0.589713 9.5056 1.06375L13.0721 4.81288C13.5068 5.26979 13.75 5.88193 13.75 6.51919V15.2316C13.75 16.5835 12.6777 17.6794 11.3548 17.6794H2.64516C1.32235 17.6794 0.25 16.5835 0.25 15.2316V2.77007Z" fill="#909090" stroke="#909090" stroke-width="0.197463"/>
<path fill-rule="evenodd" clip-rule="evenodd" d="M3.33936 11.8337C3.33936 12.2532 3.68158 12.5932 4.10374 12.5932H10.2188C10.6408 12.5932 10.9831 12.2532 10.9831 11.8337C10.9831 11.4143 10.6408 11.0742 10.2188 11.0742H4.10374C3.68158 11.0742 3.33936 11.4143 3.33936 11.8337Z" fill="#909090"/>
<path fill-rule="evenodd" clip-rule="evenodd" d="M3.33936 7.78298C3.33936 8.20239 3.68158 8.54243 4.10374 8.54243H7.16123C7.58341 8.54243 7.92561 8.20239 7.92561 7.78298C7.92561 7.36347 7.58341 7.02344 7.16123 7.02344H4.10374C3.68158 7.02344 3.33936 7.36347 3.33936 7.78298Z" fill="#909090"/>
</svg>
