<svg width="24" height="24" viewBox="0 0 24 24" fill="none" xmlns="http://www.w3.org/2000/svg">
<path d="M21.0195 12.0955L21.0193 12.0957C20.3347 13.0076 19.0867 14.5085 17.4781 15.7728C15.859 17.0454 13.9754 17.9996 11.9989 17.9996C10.0225 17.9996 8.13891 17.0454 6.52009 15.7729C4.91177 14.5086 3.66432 13.0077 2.98092 12.0962L2.98041 12.0955C2.96169 12.0706 2.94989 12.0376 2.94989 11.9998C2.94989 11.962 2.96169 11.9291 2.98035 11.9042L2.98064 11.9038C3.66426 10.9929 4.9118 9.49198 6.52018 8.22741C8.13911 6.95455 10.0227 6 11.999 6C13.9753 6 15.8589 6.95455 17.4781 8.22747C19.0867 9.49208 20.3348 10.9931 21.0197 11.9044C21.0383 11.9292 21.05 11.9621 21.05 11.9998C21.05 12.0375 21.0382 12.0706 21.0195 12.0955Z" stroke="#909090" stroke-width="2"/>
<path d="M14.9684 11.9997C14.9684 13.6374 13.6367 14.971 11.999 14.971C10.3614 14.971 9.02966 13.6374 9.02966 11.9997C9.02966 10.362 10.3614 9.03027 11.999 9.03027C13.6367 9.03027 14.9684 10.362 14.9684 11.9997Z" fill="#909090"/>
</svg>
