<svg width="24" height="24" viewBox="0 0 24 24" fill="none" xmlns="http://www.w3.org/2000/svg">
<path d="M4.8 19C4.305 19 3.88125 18.8286 3.52875 18.4859C3.17625 18.1432 3 17.7312 3 17.25V6.75C3 6.26875 3.17625 5.85677 3.52875 5.51406C3.88125 5.17135 4.305 5 4.8 5H19.2C19.695 5 20.1188 5.17135 20.4713 5.51406C20.8238 5.85677 21 6.26875 21 6.75V17.25C21 17.7312 20.8238 18.1432 20.4713 18.4859C20.1188 18.8286 19.695 19 19.2 19H4.8ZM12 12.875L4.8 8.5V17.25H19.2V8.5L12 12.875ZM12 11.125L19.2 6.75H4.8L12 11.125ZM4.8 8.5V6.75V17.25V8.5Z" fill="#909090"/>
</svg>
