<svg width="36" height="36" viewBox="0 0 36 36" fill="none" xmlns="http://www.w3.org/2000/svg">
<path d="M5 28.9623V25.6274C5 24.8544 5.1995 24.1646 5.5985 23.5578C5.9975 22.9511 6.53038 22.4791 7.19713 22.1418C8.62263 21.4446 10.056 20.9069 11.4973 20.5289C12.9388 20.1512 12.8027 20.0965 14.2496 20.0578C15.3027 20.0965 15.5608 20.1512 17.002 20.5289C18.4435 20.9069 19.877 21.4446 21.3025 22.1418C21.9693 22.4791 22.5021 22.9511 22.9011 23.5578C23.3001 24.1646 23.4996 24.8544 23.4996 25.6274V28.9623H5ZM25.2275 28.9623L25.2237 25.8489C25.2237 24.8644 24.9827 23.9261 24.5007 23.0338C24.0185 22.1418 23.3345 21.3764 22.4487 20.7377C23.4545 20.8877 24.4094 21.1198 25.3134 21.4341C26.2171 21.7486 27.0796 22.1202 27.9009 22.5489C28.6759 22.9624 29.2744 23.4498 29.6964 24.0111C30.1184 24.5721 30.3294 25.1847 30.3294 25.8489L30.3331 28.9623H25.2275ZM14.2496 17.5391C12.8059 17.5391 11.57 17.0251 10.542 15.9971C9.514 14.9688 9 13.7328 9 12.2891C9 10.8453 9.514 9.60944 10.542 8.58144C11.57 7.55319 12.8059 7.03906 14.2496 7.03906C15.6934 7.03906 16.9294 7.55319 17.9576 8.58144C18.9856 9.60944 19.4996 10.8453 19.4996 12.2891C19.4996 13.7328 18.9856 14.9688 17.9576 15.9971C16.9294 17.0251 15.6934 17.5391 14.2496 17.5391ZM25.7037 12.2891C25.7037 13.7328 25.1897 14.9688 24.1617 15.9971C23.1337 17.0251 21.8979 17.5391 20.4541 17.5391C20.2849 17.5391 20.0695 17.5198 19.808 17.4813C19.5462 17.4428 19.3309 17.4006 19.1619 17.3546C19.7534 16.6433 20.208 15.8543 20.5257 14.9876C20.8432 14.1208 21.002 13.2208 21.002 12.2876C21.002 11.3541 20.84 10.4574 20.516 9.59769C20.192 8.73819 19.7406 7.94694 19.1619 7.22394C19.3771 7.14694 19.5925 7.09694 19.808 7.07394C20.0232 7.05069 20.2386 7.03906 20.4541 7.03906C21.8979 7.03906 23.1337 7.55319 24.1617 8.58144C25.1897 9.60944 25.7037 10.8453 25.7037 12.2891ZM7.24962 26.7123H21.2496V25.6274C21.2496 25.3142 21.1713 25.0354 21.0145 24.7912C20.858 24.5469 20.6095 24.3334 20.269 24.1507C19.0345 23.5142 17.7634 23.0319 16.4556 22.7039C15.011 22.3419 13.4886 22.3419 12.044 22.7039C10.7363 23.0319 9.46513 23.5142 8.23063 24.1507C7.89013 24.3334 7.6415 24.5469 7.48475 24.7912C7.328 25.0354 7.24962 25.3142 7.24962 25.6274V26.7123ZM14.2496 15.2891C15.0746 15.2891 15.7809 14.9953 16.3684 14.4078C16.9559 13.8203 17.2496 13.1141 17.2496 12.2891C17.2496 11.4641 16.9559 10.7578 16.3684 10.1703C15.7809 9.58281 15.0746 9.28906 14.2496 9.28906C13.4246 9.28906 12.7184 9.58281 12.1309 10.1703C11.5434 10.7578 11.2496 11.4641 11.2496 12.2891C11.2496 13.1141 11.5434 13.8203 12.1309 14.4078C12.7184 14.9953 13.4246 15.2891 14.2496 15.2891Z" fill="#909090"/>
</svg>
