<svg width="36" height="36" viewBox="0 0 36 36" fill="none" xmlns="http://www.w3.org/2000/svg">
<path d="M18.75 31.7018L18.5194 27.75H17.25C13.9115 27.75 11.0769 26.5846 8.74612 24.2539C6.41537 21.9231 5.25 19.0885 5.25 15.75C5.25 12.4115 6.41537 9.57687 8.74612 7.24612C11.0769 4.91537 13.9115 3.75 17.25 3.75C18.9193 3.75 20.4794 4.062 21.9304 4.686C23.3814 5.31 24.652 6.16725 25.7423 7.25775C26.8328 8.348 27.69 9.61863 28.314 11.0696C28.938 12.5206 29.25 14.0808 29.25 15.75C29.25 17.452 28.9846 19.0861 28.4539 20.6524C27.9231 22.2186 27.1938 23.684 26.2658 25.0485C25.338 26.413 24.2318 27.6591 22.947 28.7869C21.6625 29.9149 20.2635 30.8865 18.75 31.7018ZM21 27.525C22.775 26.025 24.2188 24.2688 25.3313 22.2563C26.4438 20.2438 27 18.075 27 15.75C27 13.025 26.0563 10.7188 24.1688 8.83125C22.2812 6.94375 19.975 6 17.25 6C14.525 6 12.2188 6.94375 10.3313 8.83125C8.44375 10.7188 7.5 13.025 7.5 15.75C7.5 18.475 8.44375 20.7812 10.3313 22.6688C12.2188 24.5563 14.525 25.5 17.25 25.5H21V27.525ZM17.2556 23.6595C17.6231 23.6595 17.9353 23.5311 18.192 23.2744C18.4485 23.0176 18.5768 22.7056 18.5768 22.3384C18.5768 21.9711 18.4485 21.6591 18.192 21.4024C17.9353 21.1456 17.6231 21.0173 17.2556 21.0173C16.8884 21.0173 16.5764 21.1456 16.3196 21.4024C16.0629 21.6591 15.9345 21.9711 15.9345 22.3384C15.9345 22.7056 16.0629 23.0176 16.3196 23.2744C16.5764 23.5311 16.8884 23.6595 17.2556 23.6595ZM16.3845 19.0845H18.1729C18.1921 18.402 18.2889 17.8963 18.4631 17.5673C18.6371 17.2385 19.1096 16.6885 19.8806 15.9173C20.3211 15.477 20.6794 15.0135 20.9554 14.5268C21.2314 14.0403 21.3694 13.5019 21.3694 12.9116C21.3694 11.7326 20.9669 10.8292 20.1619 10.2015C19.3571 9.5735 18.3961 9.2595 17.2789 9.2595C16.2654 9.2595 15.4101 9.53938 14.7131 10.0991C14.0159 10.6586 13.5173 11.3326 13.2172 12.1211L14.8845 12.7729C15.048 12.3384 15.3144 11.9269 15.6836 11.5384C16.0529 11.1499 16.5846 10.9556 17.2789 10.9556C18.0404 10.9556 18.6068 11.1648 18.978 11.583C19.349 12.0015 19.5345 12.4597 19.5345 12.9577C19.5345 13.4212 19.4071 13.8241 19.1524 14.1664C18.8976 14.5086 18.5809 14.8693 18.2021 15.2483C17.4039 15.9405 16.9014 16.5221 16.6946 16.9931C16.4879 17.4644 16.3845 18.1615 16.3845 19.0845Z" fill="#909090"/>
</svg>
