<svg width="36" height="36" viewBox="0 0 36 36" fill="none" xmlns="http://www.w3.org/2000/svg">
<path d="M14.3001 20.4563L18 18.2444L21.6999 20.4563L20.7184 16.3096L23.9998 13.5218L19.6814 13.1638L18 9.25331L16.3186 13.1638L12.0002 13.5218L15.2816 16.3096L14.3001 20.4563ZM6 30V7.43783C6 6.75659 6.23947 6.17998 6.71842 5.70799C7.19737 5.236 7.78248 5 8.47376 5H27.5262C28.2175 5 28.8026 5.236 29.2816 5.70799C29.7605 6.17998 30 6.75659 30 7.43783V22.7903C30 23.4716 29.7605 24.0482 29.2816 24.5202C28.8026 24.9922 28.2175 25.2282 27.5262 25.2282H10.8422L6 30ZM9.96842 23.2054H27.5262C27.6316 23.2054 27.7281 23.1621 27.8157 23.0756C27.9035 22.9893 27.9474 22.8942 27.9474 22.7903V7.43783C27.9474 7.33399 27.9035 7.23892 27.8157 7.15261C27.7281 7.06608 27.6316 7.02282 27.5262 7.02282H8.47376C8.36839 7.02282 8.27192 7.06608 8.18434 7.15261C8.09654 7.23892 8.05263 7.33399 8.05263 7.43783V25.0728L9.96842 23.2054Z" fill="#909090"/>
</svg>
