<svg width="27" height="27" viewBox="0 0 27 27" fill="none" xmlns="http://www.w3.org/2000/svg">
<g clip-path="url(#clip0_1097_2941)">
<path d="M0 13.5C0 6.0561 6.0561 0 13.5 0C16.5064 0 19.3519 0.967243 21.7291 2.7972L18.5919 6.8724C17.1221 5.74097 15.3613 5.14286 13.5 5.14286C8.89187 5.14286 5.14286 8.89187 5.14286 13.5C5.14286 18.1081 8.89187 21.8571 13.5 21.8571C17.2115 21.8571 20.3655 19.4255 21.4524 16.0714H13.5V10.9286H27V13.5C27 20.9439 20.9439 27 13.5 27C6.0561 27 0 20.9439 0 13.5Z" fill="white"/>
</g>
<defs>
<clipPath id="clip0_1097_2941">
<rect width="27" height="27" fill="white"/>
</clipPath>
</defs>
</svg>
