<svg width="34" height="34" viewBox="0 0 34 34" fill="none" xmlns="http://www.w3.org/2000/svg">
<g clip-path="url(#clip0_1115_4618)">
<path fill-rule="evenodd" clip-rule="evenodd" d="M30.0571 17.1386C30.0571 16.1687 29.9701 15.2361 29.8084 14.3408H16.9258V19.6319H24.2873C23.9702 21.3417 23.0065 22.7904 21.5579 23.7602V27.1923H25.9785C28.5649 24.811 30.0571 21.3044 30.0571 17.1386Z" fill="#4285F4"/>
<path fill-rule="evenodd" clip-rule="evenodd" d="M16.9267 30.5073C20.6199 30.5073 23.7162 29.2824 25.9794 27.1934L21.5587 23.7613C20.3339 24.5821 18.767 25.067 16.9267 25.067C13.3641 25.067 10.3486 22.6608 9.27298 19.4277H4.70312V22.9717C6.95386 27.4421 11.5797 30.5073 16.9267 30.5073Z" fill="#34A853"/>
<path fill-rule="evenodd" clip-rule="evenodd" d="M9.2728 19.4253C8.99923 18.6046 8.84379 17.728 8.84379 16.8264C8.84379 15.925 8.99923 15.0482 9.2728 14.2275V10.6836H4.70294C3.77653 12.5302 3.24805 14.6193 3.24805 16.8264C3.24805 19.0337 3.77653 21.1228 4.70294 22.9694L9.2728 19.4253Z" fill="#FBBC05"/>
<path fill-rule="evenodd" clip-rule="evenodd" d="M16.9267 8.59069C18.935 8.59069 20.738 9.28084 22.1556 10.6363L26.0789 6.71302C23.71 4.5058 20.6136 3.15039 16.9267 3.15039C11.5797 3.15039 6.95386 6.21561 4.70312 10.686L9.27298 14.23C10.3486 10.9969 13.3641 8.59069 16.9267 8.59069Z" fill="#EA4335"/>
</g>
<defs>
<clipPath id="clip0_1115_4618">
<rect width="32.8283" height="32.8283" fill="white" transform="translate(0.511719 0.414062)"/>
</clipPath>
</defs>
</svg>
