<svg width="24" height="24" viewBox="0 0 24 24" fill="none" xmlns="http://www.w3.org/2000/svg">
<path d="M10.9498 23.5V21.3995C8.7618 21.1545 6.88451 20.2487 5.31792 18.6821C3.75133 17.1155 2.84551 15.2382 2.60046 13.0502H0.5V10.9498H2.60046C2.84551 8.7618 3.75133 6.88451 5.31792 5.31792C6.88451 3.75133 8.7618 2.84551 10.9498 2.60046V0.5H13.0502V2.60046C15.2382 2.84551 17.1155 3.75133 18.6821 5.31792C20.2487 6.88451 21.1545 8.7618 21.3995 10.9498H23.5V13.0502H21.3995C21.1545 15.2382 20.2487 17.1155 18.6821 18.6821C17.1155 20.2487 15.2382 21.1545 13.0502 21.3995V23.5H10.9498ZM12 19.3516C14.0304 19.3516 15.7633 18.6339 17.1986 17.1986C18.6339 15.7633 19.3516 14.0304 19.3516 12C19.3516 9.96956 18.6339 8.23668 17.1986 6.80137C15.7633 5.36606 14.0304 4.6484 12 4.6484C9.96956 4.6484 8.23668 5.36606 6.80137 6.80137C5.36606 8.23668 4.6484 9.96956 4.6484 12C4.6484 14.0304 5.36606 15.7633 6.80137 17.1986C8.23668 18.6339 9.96956 19.3516 12 19.3516ZM12 16.2009C10.8447 16.2009 9.85578 15.7896 9.0331 14.9669C8.21043 14.1442 7.79909 13.1553 7.79909 12C7.79909 10.8447 8.21043 9.85578 9.0331 9.0331C9.85578 8.21043 10.8447 7.79909 12 7.79909C13.1553 7.79909 14.1442 8.21043 14.9669 9.0331C15.7896 9.85578 16.2009 10.8447 16.2009 12C16.2009 13.1553 15.7896 14.1442 14.9669 14.9669C14.1442 15.7896 13.1553 16.2009 12 16.2009ZM12 14.1005C12.5776 14.1005 13.0721 13.8948 13.4834 13.4834C13.8948 13.0721 14.1005 12.5776 14.1005 12C14.1005 11.4224 13.8948 10.9279 13.4834 10.5166C13.0721 10.1052 12.5776 9.89954 12 9.89954C11.4224 9.89954 10.9279 10.1052 10.5166 10.5166C10.1052 10.9279 9.89954 11.4224 9.89954 12C9.89954 12.5776 10.1052 13.0721 10.5166 13.4834C10.9279 13.8948 11.4224 14.1005 12 14.1005Z" fill="white"/>
</svg>
