<svg width="30" height="30" viewBox="0 0 30 30" fill="none" xmlns="http://www.w3.org/2000/svg">
<path d="M15 27.5C11.7708 27.5 8.96875 26.4271 6.59375 24.2812C4.21875 22.1354 2.875 19.4583 2.5625 16.25H5.09375C5.40625 18.7708 6.50521 20.8594 8.39062 22.5156C10.276 24.1719 12.4792 25 15 25C17.7917 25 20.1562 24.0312 22.0938 22.0938C24.0312 20.1562 25 17.7917 25 15C25 12.2083 24.0312 9.84375 22.0938 7.90625C20.1562 5.96875 17.7917 5 15 5C13.2083 5 11.5469 5.44271 10.0156 6.32812C8.48438 7.21354 7.27083 8.4375 6.375 10H10V12.5H2.75C3.35417 9.58333 4.80208 7.1875 7.09375 5.3125C9.38542 3.4375 12.0208 2.5 15 2.5C16.7292 2.5 18.3542 2.82812 19.875 3.48438C21.3958 4.14062 22.7188 5.03125 23.8438 6.15625C24.9688 7.28125 25.8594 8.60417 26.5156 10.125C27.1719 11.6458 27.5 13.2708 27.5 15C27.5 16.7292 27.1719 18.3542 26.5156 19.875C25.8594 21.3958 24.9688 22.7188 23.8438 23.8438C22.7188 24.9688 21.3958 25.8594 19.875 26.5156C18.3542 27.1719 16.7292 27.5 15 27.5ZM18.5 20.25L13.75 15.5V8.75H16.25V14.5L20.25 18.5L18.5 20.25Z" fill="#909090"/>
</svg>
