<svg width="36" height="36" viewBox="0 0 36 36" fill="none" xmlns="http://www.w3.org/2000/svg">
<path d="M29.8078 30.75L28.2271 29.1836L30.9646 26.4086H24.1828V24.1586H30.9646L28.2271 21.3836L29.8078 19.8173L35.2741 25.2836L29.8078 30.75ZM16.322 22.125C17.5875 22.125 18.737 21.8245 19.7705 21.2235C20.8043 20.6225 21.6365 19.8269 22.2673 18.8366C21.4403 18.1981 20.5234 17.7116 19.5166 17.3771C18.5101 17.0424 17.4463 16.875 16.325 16.875C15.2038 16.875 14.1389 17.0424 13.1304 17.3771C12.1216 17.7116 11.2039 18.1981 10.3771 18.8366C11.0079 19.8269 11.84 20.6225 12.8735 21.2235C13.9073 21.8245 15.0568 22.125 16.322 22.125ZM16.322 14.625C17.051 14.625 17.6708 14.3698 18.1813 13.8593C18.6918 13.3485 18.947 12.7288 18.947 12C18.947 11.2713 18.6918 10.6515 18.1813 10.1407C17.6708 9.63025 17.051 9.375 16.322 9.375C15.5933 9.375 14.9736 9.63025 14.4631 10.1407C13.9524 10.6515 13.697 11.2713 13.697 12C13.697 12.7288 13.9524 13.3485 14.4631 13.8593C14.9736 14.3698 15.5933 14.625 16.322 14.625ZM16.322 32.2643C12.547 28.9933 9.71625 25.9491 7.82975 23.1319C5.94325 20.3144 5 17.7277 5 15.372C5 11.9105 6.11975 9.10812 8.35925 6.96487C10.5985 4.82162 13.2528 3.75 16.322 3.75C19.3913 3.75 22.0456 4.82162 24.2851 6.96487C26.5244 9.10812 27.644 11.9105 27.644 15.372C27.644 15.5877 27.6402 15.8095 27.6327 16.0372C27.625 16.265 27.5961 16.4943 27.5461 16.725H25.2586C25.3086 16.4943 25.3438 16.265 25.364 16.0372C25.3843 15.8095 25.3944 15.5877 25.3944 15.372C25.3944 12.6375 24.5256 10.3895 22.7881 8.628C21.0506 6.8665 18.8953 5.98575 16.322 5.98575C13.749 5.98575 11.5938 6.8665 9.85625 8.628C8.11875 10.3895 7.25 12.6375 7.25 15.372C7.25 17.1855 8.02838 19.2985 9.58513 21.711C11.1419 24.1235 13.3875 26.6432 16.322 29.2703C16.926 28.751 17.491 28.2245 18.017 27.6908C18.5428 27.1572 19.0451 26.6338 19.5241 26.1203L19.7821 26.364C19.9544 26.5265 20.1385 26.7054 20.3345 26.9006C20.5305 27.0956 20.7079 27.2769 20.8666 27.4444L21.1048 27.6952C20.423 28.4325 19.6824 29.1818 18.8829 29.943C18.0834 30.704 17.2298 31.4778 16.322 32.2643Z" fill="#909090"/>
</svg>
