<svg width="20" height="20" viewBox="0 0 20 20" fill="none" xmlns="http://www.w3.org/2000/svg">
<path d="M9.99967 9.13802C10.458 9.13802 10.8504 8.97483 11.1768 8.64844C11.5031 8.32205 11.6663 7.92969 11.6663 7.47135C11.6663 7.01302 11.5031 6.62066 11.1768 6.29427C10.8504 5.96788 10.458 5.80469 9.99967 5.80469C9.54134 5.80469 9.14898 5.96788 8.82259 6.29427C8.4962 6.62066 8.33301 7.01302 8.33301 7.47135C8.33301 7.92969 8.4962 8.32205 8.82259 8.64844C9.14898 8.97483 9.54134 9.13802 9.99967 9.13802ZM9.99967 15.263C11.6941 13.7075 12.9511 12.2943 13.7705 11.0234C14.59 9.75261 14.9997 8.62413 14.9997 7.63802C14.9997 6.12413 14.517 4.88455 13.5518 3.91927C12.5865 2.95399 11.4025 2.47135 9.99967 2.47135C8.5969 2.47135 7.41287 2.95399 6.44759 3.91927C5.48231 4.88455 4.99967 6.12413 4.99967 7.63802C4.99967 8.62413 5.4094 9.75261 6.22884 11.0234C7.04829 12.2943 8.30523 13.7075 9.99967 15.263ZM9.99967 17.4714C7.76356 15.5686 6.09342 13.8012 4.98926 12.1693C3.88509 10.5373 3.33301 9.02691 3.33301 7.63802C3.33301 5.55469 4.00315 3.89497 5.34342 2.65885C6.6837 1.42274 8.23579 0.804688 9.99967 0.804688C11.7636 0.804688 13.3156 1.42274 14.6559 2.65885C15.9962 3.89497 16.6663 5.55469 16.6663 7.63802C16.6663 9.02691 16.1143 10.5373 15.0101 12.1693C13.9059 13.8012 12.2358 15.5686 9.99967 17.4714Z" fill="#909090"/>
</svg>
