<svg width="16" height="16" viewBox="0 0 16 16" fill="none" xmlns="http://www.w3.org/2000/svg">
<path d="M9.33268 8.00016C9.33268 7.26378 8.73573 6.66683 7.99935 6.66683C7.26297 6.66683 6.66602 7.26378 6.66602 8.00016C6.66602 8.73654 7.26297 9.3335 7.99935 9.3335C8.73573 9.3335 9.33268 8.73654 9.33268 8.00016Z" fill="white"/>
<path d="M9.33268 13.3337C9.33268 12.5973 8.73573 12.0003 7.99935 12.0003C7.26297 12.0003 6.66602 12.5973 6.66602 13.3337C6.66602 14.07 7.26297 14.667 7.99935 14.667C8.73573 14.667 9.33268 14.07 9.33268 13.3337Z" fill="white"/>
<path d="M9.33268 2.66715C9.33268 1.93078 8.73573 1.33382 7.99935 1.33382C7.26297 1.33382 6.66602 1.93078 6.66602 2.66715C6.66602 3.40353 7.26297 4.00049 7.99935 4.00049C8.73573 4.00049 9.33268 3.40353 9.33268 2.66715Z" fill="white"/>
</svg>
