<svg width="50" height="50" viewBox="0 0 50 50" fill="none" xmlns="http://www.w3.org/2000/svg">
<path d="M25.0003 29.1665C23.2642 29.1665 21.7885 28.5589 20.5732 27.3436C19.358 26.1283 18.7503 24.6526 18.7503 22.9165V10.4165C18.7503 8.68039 19.358 7.2047 20.5732 5.98942C21.7885 4.77414 23.2642 4.1665 25.0003 4.1665C26.7364 4.1665 28.2121 4.77414 29.4274 5.98942C30.6427 7.2047 31.2503 8.68039 31.2503 10.4165V22.9165C31.2503 24.6526 30.6427 26.1283 29.4274 27.3436C28.2121 28.5589 26.7364 29.1665 25.0003 29.1665ZM22.917 43.7498V37.3436C19.3059 36.8575 16.3198 35.2429 13.9587 32.4998C11.5975 29.7568 10.417 26.5623 10.417 22.9165H14.5837C14.5837 25.7984 15.5993 28.255 17.6305 30.2863C19.6618 32.3175 22.1184 33.3332 25.0003 33.3332C27.8823 33.3332 30.3389 32.3175 32.3701 30.2863C34.4014 28.255 35.417 25.7984 35.417 22.9165H39.5837C39.5837 26.5623 38.4031 29.7568 36.042 32.4998C33.6809 35.2429 30.6948 36.8575 27.0837 37.3436V43.7498H22.917ZM25.0003 24.9998C25.5906 24.9998 26.0854 24.8002 26.4847 24.4009C26.884 24.0016 27.0837 23.5068 27.0837 22.9165V10.4165C27.0837 9.82623 26.884 9.33143 26.4847 8.93213C26.0854 8.53282 25.5906 8.33317 25.0003 8.33317C24.41 8.33317 23.9153 8.53282 23.516 8.93213C23.1166 9.33143 22.917 9.82623 22.917 10.4165V22.9165C22.917 23.5068 23.1166 24.0016 23.516 24.4009C23.9153 24.8002 24.41 24.9998 25.0003 24.9998Z" fill="white"/>
</svg>
