<svg width="24" height="24" viewBox="0 0 24 24" fill="none" xmlns="http://www.w3.org/2000/svg">
<path d="M15.8739 22.4933C15.5025 22.5237 15.1289 22.473 14.779 22.3448C14.4291 22.2166 14.1112 22.0139 13.8474 21.7508C13.3816 21.5633 10.7746 15.1095 10.4746 14.5913L15.4599 9.60602C15.5298 9.53653 15.5852 9.45391 15.6231 9.36291C15.6609 9.27191 15.6804 9.17433 15.6804 9.07577C15.6804 8.97722 15.6609 8.87963 15.6231 8.78863C15.5852 8.69763 15.5298 8.61501 15.4599 8.54552C15.3907 8.475 15.3082 8.41897 15.2172 8.38072C15.1261 8.34247 15.0284 8.32277 14.9296 8.32277C14.8309 8.32277 14.7331 8.34247 14.6421 8.38072C14.551 8.41897 14.4685 8.475 14.3994 8.54552L9.41413 13.5308L3.03913 10.6988C2.54678 10.4841 2.13414 10.1204 1.85927 9.65895C1.58441 9.19748 1.46117 8.66145 1.50688 8.12627C1.54646 7.59162 1.75238 7.08277 2.09576 6.67106C2.43915 6.25935 2.90277 5.96544 3.42163 5.83052L19.2361 1.58777C19.6764 1.4686 20.1404 1.46813 20.5809 1.58643C21.0214 1.70473 21.4228 1.93757 21.7441 2.26127C22.0664 2.58256 22.298 2.98337 22.4153 3.42305C22.5327 3.86272 22.5317 4.32562 22.4124 4.76477L18.1696 20.5785C18.0347 21.0974 17.7408 21.561 17.3291 21.9044C16.9174 22.2478 16.4085 22.4537 15.8739 22.4933Z" fill="#909090"/>
</svg>
