<svg width="30" height="30" viewBox="0 0 30 30" fill="none" xmlns="http://www.w3.org/2000/svg">
<path d="M14.4982 23C13.9901 23 13.5551 22.815 13.1932 22.4451C12.8313 22.0752 12.6504 21.6306 12.6504 21.1111C12.6504 20.5917 12.8313 20.147 13.1932 19.7771C13.5551 19.4072 13.9901 19.2222 14.4982 19.2222C15.0064 19.2222 15.4414 19.4072 15.8032 19.7771C16.1651 20.147 16.346 20.5917 16.346 21.1111C16.346 21.6306 16.1651 22.0752 15.8032 22.4451C15.4414 22.815 15.0064 23 14.4982 23ZM14.4982 16.3889C13.9901 16.3889 13.5551 16.2039 13.1932 15.834C12.8313 15.4641 12.6504 15.0194 12.6504 14.5C12.6504 13.9806 12.8313 13.5359 13.1932 13.166C13.5551 12.7961 13.9901 12.6111 14.4982 12.6111C15.0064 12.6111 15.4414 12.7961 15.8032 13.166C16.1651 13.5359 16.346 13.9806 16.346 14.5C16.346 15.0194 16.1651 15.4641 15.8032 15.834C15.4414 16.2039 15.0064 16.3889 14.4982 16.3889ZM14.4982 9.77778C13.9901 9.77778 13.5551 9.59282 13.1932 9.22292C12.8313 8.85301 12.6504 8.40833 12.6504 7.88889C12.6504 7.36944 12.8313 6.92477 13.1932 6.55486C13.5551 6.18495 13.9901 6 14.4982 6C15.0064 6 15.4414 6.18495 15.8032 6.55486C16.1651 6.92477 16.346 7.36944 16.346 7.88889C16.346 8.40833 16.1651 8.85301 15.8032 9.22292C15.4414 9.59282 15.0064 9.77778 14.4982 9.77778Z" fill="white"/>
</svg>
