<svg width="26" height="25" viewBox="0 0 26 25" fill="none" xmlns="http://www.w3.org/2000/svg">
<path d="M6.90658 14.485H15.4222V12.7402H6.90658V14.485ZM6.90658 9.84961H19.0941V8.10482H6.90658V9.84961ZM3.26074 22.9746V5.3444C3.26074 4.86454 3.43158 4.45378 3.77324 4.11211C4.11491 3.77044 4.52567 3.59961 5.00553 3.59961H20.9951C21.475 3.59961 21.8857 3.77044 22.2274 4.11211C22.5691 4.45378 22.7399 4.86454 22.7399 5.3444V17.6361C22.7399 18.1159 22.5691 18.5267 22.2274 18.8684C21.8857 19.21 21.475 19.3809 20.9951 19.3809H6.85449L3.26074 22.9746ZM6.13835 17.6361H20.9951V5.3444H5.00553V18.7819L6.13835 17.6361Z" fill="white"/>
</svg>
