<svg width="30" height="30" viewBox="0 0 30 30" fill="none" xmlns="http://www.w3.org/2000/svg">
<path d="M2.46957 27.8354C2.76174 28.0204 3.13217 28.0512 3.45461 27.9189L10.3478 25.1027L17.241 27.9189C17.4945 28.0185 17.779 28.0189 18.0328 27.9202C18.2867 27.8214 18.4895 27.6314 18.5976 27.3911C18.7056 27.1509 18.7101 26.8798 18.6101 26.6364C18.5102 26.393 18.3137 26.197 18.0633 26.0905L11.3913 23.3649V4.5028L16.6087 6.63458V14.0728C16.6087 14.3366 16.7186 14.5897 16.9143 14.7762C17.11 14.9628 17.3754 15.0676 17.6522 15.0676C17.9289 15.0676 18.1943 14.9628 18.39 14.7762C18.5857 14.5897 18.6957 14.3366 18.6957 14.0728V6.63458L23.913 4.5028V11.0885C23.913 11.3523 24.023 11.6054 24.2187 11.7919C24.4144 11.9785 24.6798 12.0833 24.9565 12.0833C25.2333 12.0833 25.4987 11.9785 25.6944 11.7919C25.8901 11.6054 26 11.3523 26 11.0885V2.99474C26 2.83013 25.9571 2.66809 25.8752 2.52316C25.7934 2.37823 25.675 2.25493 25.5309 2.16433C25.3867 2.07372 25.2212 2.01864 25.0492 2.00402C24.8772 1.9894 24.7041 2.0157 24.5454 2.08055L17.6522 4.89673L10.759 2.08055C10.6291 2.02741 10.4892 2 10.3478 2C10.2065 2 10.0666 2.02741 9.9367 2.08055L2.63235 5.06484C2.4446 5.14143 2.28459 5.26889 2.17217 5.43142C2.05976 5.59394 1.99989 5.78436 2 5.97903V27.0047C2.00003 27.1694 2.04295 27.3315 2.1249 27.4765C2.20686 27.6215 2.32529 27.7448 2.46957 27.8354ZM4.08696 6.63458L9.30435 4.5028V23.3639L4.08696 25.4957V6.63458Z" fill="white"/>
<path d="M26.7234 14.1186L17.0595 17.8995C16.3787 18.1659 15.9635 18.8101 16.0025 19.5405C16.0415 20.2708 16.5225 20.8663 17.2285 21.0588L20.9316 22.0686L21.9414 25.7715C22.0341 26.1273 22.2435 26.4416 22.536 26.6643C22.8285 26.887 23.1873 27.0052 23.5549 26.9998C24.2455 26.9998 24.8459 26.5928 25.101 25.9405L28.8821 16.2763C29.0027 15.975 29.0316 15.6447 28.9651 15.327C28.8986 15.0093 28.7397 14.7183 28.5083 14.4907C28.2807 14.2595 27.9898 14.1008 27.6722 14.0346C27.3546 13.9684 27.0245 13.9976 26.7234 14.1186ZM23.5184 25.3669C23.5141 25.3602 23.5111 25.3528 23.5094 25.345L22.3769 21.1937C22.3396 21.0573 22.2673 20.9329 22.1673 20.8329C22.0673 20.7329 21.943 20.6607 21.8066 20.6234L17.651 19.4129L27.3685 15.6849L23.5184 25.3669Z" fill="white"/>
</svg>
