<svg width="30" height="30" viewBox="0 0 30 30" fill="none" xmlns="http://www.w3.org/2000/svg">
<path d="M15 6.05615C13.8453 6.0659 12.7348 6.50151 11.8815 7.27949C11.0282 8.05746 10.492 9.12304 10.3758 10.2719C10.2597 11.4208 10.5717 12.5721 11.252 13.5052C11.9323 14.4382 12.9331 15.0873 14.0625 15.328V26.3541C14.0625 26.6027 14.1613 26.8412 14.3371 27.017C14.5129 27.1928 14.7514 27.2916 15 27.2916C15.2486 27.2916 15.4871 27.1928 15.6629 27.017C15.8387 26.8412 15.9375 26.6027 15.9375 26.3541V15.328C17.0669 15.0873 18.0677 14.4382 18.748 13.5052C19.4283 12.5721 19.7403 11.4208 19.6242 10.2719C19.508 9.12304 18.9719 8.05746 18.1185 7.27949C17.2652 6.50151 16.1547 6.0659 15 6.05615ZM15 13.5562C14.4437 13.5562 13.9 13.3912 13.4375 13.0822C12.975 12.7731 12.6145 12.3339 12.4016 11.82C12.1887 11.306 12.133 10.7405 12.2415 10.195C12.3501 9.64939 12.6179 9.14825 13.0113 8.75491C13.4046 8.36158 13.9057 8.09371 14.4513 7.98519C14.9969 7.87667 15.5624 7.93237 16.0763 8.14524C16.5902 8.35811 17.0295 8.7186 17.3385 9.18111C17.6476 9.64362 17.8125 10.1874 17.8125 10.7437C17.8125 11.4896 17.5162 12.2049 16.9887 12.7324C16.4613 13.2598 15.7459 13.5562 15 13.5562Z" fill="white"/>
<path d="M25.7347 18.0768C27.2239 16.0374 28.0812 13.6055 28.2003 11.0831C28.3712 7.7594 27.2452 4.49919 25.0597 1.98932C24.8968 1.8017 24.6661 1.68643 24.4182 1.66885C24.1703 1.65128 23.9256 1.73282 23.7378 1.89557C23.5502 2.05849 23.435 2.28924 23.4174 2.5371C23.3998 2.78496 23.4814 3.02967 23.6441 3.21744C25.2839 5.10577 26.2335 7.49513 26.3375 9.9939C26.4414 12.4927 25.6933 14.9526 24.216 16.9706C24.1137 17.1105 24.0522 17.2761 24.0384 17.4488C24.0246 17.6216 24.0589 17.7948 24.1376 17.9493C24.2162 18.1037 24.3362 18.2333 24.4841 18.3237C24.632 18.414 24.802 18.4616 24.9753 18.4612C25.1233 18.4616 25.2692 18.427 25.4012 18.3601C25.5331 18.2933 25.6475 18.1963 25.7347 18.0768Z" fill="white"/>
<path d="M4.14906 18.0768C2.6599 16.0374 1.80254 13.6055 1.68344 11.0831C1.5126 7.7594 2.63855 4.49919 4.82406 1.98932C4.98699 1.8017 5.21774 1.68643 5.4656 1.66885C5.71346 1.65128 5.95817 1.73282 6.14594 1.89557C6.33356 2.05849 6.44882 2.28924 6.4664 2.5371C6.48398 2.78496 6.40244 3.02967 6.23969 3.21744C4.59991 5.10577 3.65024 7.49513 3.54634 9.9939C3.44243 12.4927 4.19046 14.9526 5.66781 16.9706C5.77007 17.1105 5.83154 17.2761 5.84538 17.4488C5.85922 17.6216 5.8249 17.7948 5.74623 17.9493C5.66755 18.1037 5.5476 18.2333 5.39971 18.3237C5.25181 18.414 5.08176 18.4616 4.90844 18.4612C4.76052 18.4616 4.6146 18.427 4.48262 18.3601C4.35064 18.2933 4.23634 18.1963 4.14906 18.0768Z" fill="white"/>
<path d="M23.8177 10.4788C23.8177 8.91035 23.3881 7.37189 22.5757 6.03032V6.05845C22.4356 5.88072 22.236 5.75964 22.0137 5.71754C21.7914 5.67545 21.5614 5.71517 21.366 5.8294C21.1707 5.94362 21.0233 6.12463 20.951 6.33903C20.8787 6.55343 20.8863 6.78675 20.9725 6.99595C21.6072 8.04339 21.9427 9.24469 21.9427 10.4694C21.9427 11.6941 21.6072 12.8954 20.9725 13.9428C20.842 14.1554 20.8013 14.4111 20.8593 14.6538C20.9173 14.8964 21.0693 15.106 21.2819 15.2366C21.4945 15.3671 21.7502 15.4078 21.9929 15.3498C22.2355 15.2918 22.4451 15.1398 22.5757 14.9272C23.3881 13.5856 23.8177 12.0472 23.8177 10.4788Z" fill="white"/>
<path d="M6.06662 10.4788C6.06662 8.91035 6.49615 7.37189 7.3086 6.03032V6.05845C7.44864 5.88072 7.64824 5.75964 7.87055 5.71754C8.09287 5.67545 8.32291 5.71517 8.51824 5.8294C8.71356 5.94362 8.86098 6.12463 8.9333 6.33903C9.00562 6.55343 8.99796 6.78675 8.91173 6.99595C8.27711 8.04339 7.94159 9.24469 7.94159 10.4694C7.94159 11.6941 8.27711 12.8954 8.91173 13.9428C9.04226 14.1554 9.083 14.4111 9.02499 14.6538C8.96697 14.8964 8.81494 15.106 8.60235 15.2366C8.38976 15.3671 8.13403 15.4078 7.89141 15.3498C7.64878 15.2918 7.43914 15.1398 7.3086 14.9272C6.49615 13.5856 6.06662 12.0472 6.06662 10.4788Z" fill="white"/>
</svg>
