<svg width="36" height="36" viewBox="0 0 36 36" fill="none" xmlns="http://www.w3.org/2000/svg">
<path d="M16.5 25.5H19.5V16.5H16.5V25.5ZM18 13.5C18.425 13.5 18.7813 13.3563 19.0688 13.0688C19.3563 12.7812 19.5 12.425 19.5 12C19.5 11.575 19.3563 11.2188 19.0688 10.9313C18.7813 10.6438 18.425 10.5 18 10.5C17.575 10.5 17.2188 10.6438 16.9313 10.9313C16.6438 11.2188 16.5 11.575 16.5 12C16.5 12.425 16.6438 12.7812 16.9313 13.0688C17.2188 13.3563 17.575 13.5 18 13.5ZM18 33C14.525 32.125 11.6562 30.1313 9.39375 27.0188C7.13125 23.9062 6 20.45 6 16.65V7.5L18 3L30 7.5V16.65C30 20.45 28.8688 23.9062 26.6063 27.0188C24.3438 30.1313 21.475 32.125 18 33ZM18 29.85C20.6 29.025 22.75 27.375 24.45 24.9C26.15 22.425 27 19.675 27 16.65V9.5625L18 6.1875L9 9.5625V16.65C9 19.675 9.85 22.425 11.55 24.9C13.25 27.375 15.4 29.025 18 29.85Z" fill="#909090"/>
</svg>
