<svg width="24" height="24" viewBox="0 0 24 24" fill="none" xmlns="http://www.w3.org/2000/svg">
<path d="M6.6881 21C6.22384 21 5.82642 20.8378 5.49585 20.5134C5.16528 20.1891 5 19.7991 5 19.3436V10.6417C5 10.1862 5.16528 9.7962 5.49585 9.47183C5.82642 9.14746 6.22384 8.98528 6.6881 8.98528H7.65595V7.26722C7.65595 6.07885 8.07797 5.07055 8.92203 4.24233C9.76608 3.41411 10.7921 3 12 3C13.2079 3 14.2339 3.41411 15.078 4.24233C15.922 5.07055 16.3441 6.07885 16.3441 7.26722V8.98528H17.3119C17.7762 8.98528 18.1736 9.14746 18.5041 9.47183C18.8347 9.7962 19 10.1862 19 10.6417V19.3436C19 19.7991 18.8347 20.1891 18.5041 20.5134C18.1736 20.8378 17.7762 21 17.3119 21H6.6881ZM6.6881 19.3436H17.3119V10.6417H6.6881V19.3436ZM12 16.6933C12.4766 16.6933 12.8846 16.5267 13.224 16.1937C13.5634 15.8606 13.7331 15.4603 13.7331 14.9926C13.7331 14.525 13.5634 14.1247 13.224 13.7916C12.8846 13.4586 12.4766 13.292 12 13.292C11.5234 13.292 11.1154 13.4586 10.776 13.7916C10.4366 14.1247 10.2669 14.525 10.2669 14.9926C10.2669 15.4603 10.4366 15.8606 10.776 16.1937C11.1154 16.5267 11.5234 16.6933 12 16.6933ZM9.34405 8.98528H14.6559V7.25926C14.6559 6.54 14.398 5.92638 13.8821 5.41841C13.3662 4.91043 12.7398 4.65644 12.0027 4.65644C11.2656 4.65644 10.6383 4.90984 10.1206 5.41664C9.60289 5.92329 9.34405 6.5386 9.34405 7.26258V8.98528Z" fill="#909090"/>
</svg>
