<svg width="30" height="30" viewBox="0 0 30 30" fill="none" xmlns="http://www.w3.org/2000/svg">
<path d="M15 21.25C15.3542 21.25 15.651 21.1302 15.8906 20.8906C16.1302 20.651 16.25 20.3542 16.25 20C16.25 19.6458 16.1302 19.349 15.8906 19.1094C15.651 18.8698 15.3542 18.75 15 18.75C14.6458 18.75 14.349 18.8698 14.1094 19.1094C13.8698 19.349 13.75 19.6458 13.75 20C13.75 20.3542 13.8698 20.651 14.1094 20.8906C14.349 21.1302 14.6458 21.25 15 21.25ZM13.75 16.25H16.25V8.75H13.75V16.25ZM10.3125 26.25L3.75 19.6875V10.3125L10.3125 3.75H19.6875L26.25 10.3125V19.6875L19.6875 26.25H10.3125ZM11.375 23.75H18.625L23.75 18.625V11.375L18.625 6.25H11.375L6.25 11.375V18.625L11.375 23.75Z" fill="white"/>
</svg>
