<svg width="28" height="28" viewBox="0 0 28 28" fill="none" xmlns="http://www.w3.org/2000/svg">
<path d="M4.44375 19.1545C3.9625 18.3485 3.60156 17.5212 3.36094 16.6727C3.12031 15.8242 3 14.9545 3 14.0636C3 11.2212 4.01719 8.80303 6.05156 6.80909C8.08594 4.81515 10.5687 3.81818 13.5 3.81818H13.7297L11.6297 1.78182L13.4672 0L18.7172 5.09091L13.4672 10.1818L11.6297 8.4L13.7297 6.36364H13.5C11.3125 6.36364 9.45312 7.11136 7.92188 8.60682C6.39062 10.1023 5.625 11.9212 5.625 14.0636C5.625 14.6152 5.69062 15.1561 5.82187 15.6864C5.95312 16.2167 6.15 16.7364 6.4125 17.2455L4.44375 19.1545ZM13.5328 28L8.28281 22.9091L13.5328 17.8182L15.3703 19.6L13.2703 21.6364H13.5C15.6875 21.6364 17.5469 20.8886 19.0781 19.3932C20.6094 17.8977 21.375 16.0788 21.375 13.9364C21.375 13.3848 21.3094 12.8439 21.1781 12.3136C21.0469 11.7833 20.85 11.2636 20.5875 10.7545L22.5562 8.84545C23.0375 9.65152 23.3984 10.4788 23.6391 11.3273C23.8797 12.1758 24 13.0455 24 13.9364C24 16.7788 22.9828 19.197 20.9484 21.1909C18.9141 23.1848 16.4312 24.1818 13.5 24.1818H13.2703L15.3703 26.2182L13.5328 28Z" fill="white"/>
</svg>
