<svg width="30" height="30" viewBox="0 0 30 30" fill="none" xmlns="http://www.w3.org/2000/svg">
<path d="M14.781 25.7392C14.8767 25.7392 14.9868 25.7129 15.1114 25.6601C15.2362 25.6076 15.3461 25.5327 15.4412 25.4353L25.764 14.8601C26.1046 14.5116 26.3618 14.1527 26.5356 13.7832C26.7094 13.414 26.7963 13.0186 26.7963 12.597C26.7963 12.1512 26.7165 11.7316 26.557 11.3382C26.3974 10.9451 26.1596 10.5792 25.8436 10.2406L20.7586 5.05254C20.4901 4.77593 20.1631 4.57123 19.7775 4.43846C19.392 4.30546 19.0176 4.23897 18.6545 4.23897C18.3029 4.23897 17.9253 4.33616 17.5217 4.53055C17.1178 4.72516 16.7876 4.95014 16.5311 5.2055L16.2019 5.5498L18.5918 8.02308C18.8898 8.35459 19.1423 8.72905 19.3494 9.14647C19.5567 9.56389 19.6604 10.0178 19.6604 10.5081C19.6604 11.3785 19.3394 12.1424 18.6975 12.7998C18.0558 13.4571 17.3056 13.7858 16.447 13.7858C15.921 13.7858 15.4697 13.6988 15.0933 13.5248C14.7166 13.351 14.3719 13.1049 14.0591 12.7864L11.8369 10.5855L6.38932 16.152C6.28322 16.2601 6.20725 16.3708 6.16141 16.4843C6.11536 16.598 6.09234 16.7156 6.09234 16.8371C6.09234 17.0798 6.17244 17.2827 6.33266 17.4456C6.49288 17.6085 6.69087 17.69 6.92663 17.69C7.04441 17.69 7.16473 17.6548 7.2876 17.5842C7.41026 17.5137 7.50702 17.4405 7.5779 17.3646L11.8019 13.0487L13.2238 14.5024L9.01604 18.7962C8.90611 18.9085 8.82897 19.0256 8.78462 19.1473C8.74048 19.2688 8.71841 19.3868 8.71841 19.5014C8.71841 19.7381 8.7999 19.9402 8.96288 20.1076C9.12585 20.2749 9.32342 20.3585 9.55557 20.3585C9.67696 20.3585 9.79643 20.326 9.91399 20.2609C10.0316 20.1958 10.1284 20.127 10.2046 20.0543L14.4102 15.7413L15.8321 17.195L11.6297 21.4888C11.5427 21.5866 11.4714 21.698 11.4158 21.823C11.3602 21.948 11.3324 22.069 11.3324 22.1862C11.3324 22.4298 11.4138 22.6348 11.5765 22.8012C11.7393 22.9679 11.9397 23.0512 12.1778 23.0512C12.2916 23.0512 12.4002 23.0269 12.5038 22.9783C12.6076 22.9295 12.7122 22.8525 12.8176 22.7475L17.0394 18.4291L18.461 19.8828L14.2395 24.1986C14.1368 24.3102 14.0616 24.4269 14.0139 24.5488C13.9663 24.6707 13.9426 24.7805 13.9426 24.8781C13.9426 25.1459 14.0177 25.3563 14.1679 25.5095C14.3184 25.6626 14.5227 25.7392 14.781 25.7392ZM14.7902 28C14.0549 28 13.396 27.7425 12.8135 27.2274C12.231 26.7122 11.8961 26.06 11.8089 25.2709C11.101 25.1572 10.5087 24.8592 10.0321 24.3766C9.55568 23.8941 9.26103 23.2927 9.14813 22.5725C8.4487 22.4518 7.86958 22.1492 7.41079 21.6645C6.95199 21.1798 6.6636 20.5881 6.54561 19.8893C5.79079 19.7836 5.15321 19.4343 4.63287 18.8414C4.11233 18.2482 3.85205 17.5623 3.85205 16.7837C3.85205 16.3708 3.92548 15.9734 4.07233 15.5913C4.21917 15.2093 4.43764 14.8639 4.72773 14.5551L11.8315 7.29542L15.4889 11.0297C15.6269 11.1725 15.7801 11.2859 15.9486 11.3698C16.1171 11.4538 16.2881 11.4958 16.4617 11.4958C16.6987 11.4958 16.9204 11.3908 17.1266 11.1807C17.3329 10.9709 17.436 10.7368 17.436 10.4785C17.436 10.3663 17.4004 10.2312 17.3291 10.0733C17.2576 9.91535 17.156 9.77119 17.0245 9.6408L12.5191 5.03399C12.2731 4.77907 11.9647 4.58284 11.5937 4.44529C11.2226 4.30774 10.8517 4.23897 10.4812 4.23897C10.1147 4.23897 9.74518 4.30047 9.37254 4.42349C8.99991 4.54672 8.68732 4.74208 8.4348 5.00959L3.98925 9.53796C3.71698 9.8161 3.51952 10.1311 3.39687 10.483C3.27421 10.8349 3.20843 11.2337 3.19951 11.6793C3.19378 12.1143 3.26784 12.5087 3.4217 12.8626C3.57576 13.2162 3.75571 13.5326 3.96155 13.8118L2.38304 15.4273C1.97348 14.9704 1.64201 14.4077 1.38863 13.7393C1.13526 13.0708 1.00602 12.3752 1.00093 11.6523C0.988834 10.9691 1.09473 10.3143 1.31861 9.68799C1.54227 9.06164 1.89783 8.49929 2.38527 8.00095L6.9069 3.37039C7.34659 2.9226 7.88178 2.5822 8.51246 2.34919C9.14294 2.1164 9.80471 2 10.4978 2C11.1758 2 11.8275 2.12909 12.4529 2.38726C13.0782 2.64565 13.6335 3.01795 14.1186 3.50414L14.5674 3.95421L15.0083 3.50414C15.4849 3.02489 16.0478 2.65433 16.6969 2.39247C17.3458 2.13082 18.0032 2 18.6689 2C19.4182 2 20.1117 2.13885 20.7493 2.41655C21.387 2.69425 21.925 3.05667 22.3632 3.50382L27.4743 8.71234C27.983 9.23802 28.3644 9.8353 28.6187 10.5042C28.8729 11.173 29 11.871 29 12.598C29 13.3122 28.8629 13.9918 28.5887 14.6368C28.3144 15.2818 27.9124 15.8804 27.383 16.4325L16.9735 27.0641C16.672 27.3724 16.3358 27.6054 15.9651 27.7631C15.5942 27.921 15.2025 28 14.7902 28Z" fill="white"/>
</svg>
