<svg width="30" height="30" viewBox="0 0 30 30" fill="none" xmlns="http://www.w3.org/2000/svg">
<path d="M15 28.125L10.5938 23.75H6.875C6.29292 23.7083 5.79844 23.4886 5.39156 23.0909C4.98469 22.693 4.78125 22.2148 4.78125 21.6562V5.40625C4.78125 4.83042 4.98625 4.3375 5.39625 3.9275C5.80625 3.5175 6.29917 3.3125 6.875 3.3125H23.125C23.7008 3.3125 24.1938 3.5175 24.6038 3.9275C25.0138 4.3375 25.2188 4.83042 25.2188 5.40625V21.6562C25.2188 22.2148 25.0153 22.693 24.6084 23.0909C24.2016 23.4886 23.7071 23.7083 23.125 23.75H19.4062L15 28.125ZM6.875 20.0625C8.02729 19.1235 9.3024 18.4252 10.7003 17.9675C12.098 17.51 13.5312 17.2812 15 17.2812C16.4688 17.2812 17.902 17.5048 19.2997 17.9519C20.6976 18.3992 21.9727 19.1027 23.125 20.0625V5.40625H6.875V20.0625ZM15.0109 15.9375C16.2224 15.9375 17.2526 15.5094 18.1016 14.6531C18.9505 13.7967 19.375 12.7628 19.375 11.5516C19.375 10.3401 18.9469 9.3099 18.0906 8.46094C17.2342 7.61198 16.2003 7.1875 14.9891 7.1875C13.7776 7.1875 12.7474 7.61562 11.8984 8.47187C11.0495 9.32833 10.625 10.3622 10.625 11.5734C10.625 12.7849 11.0531 13.8151 11.9094 14.6641C12.7658 15.513 13.7997 15.9375 15.0109 15.9375ZM8.25 21.6562H21.75V21.6528C20.7917 20.9155 19.7344 20.3516 18.5781 19.9609C17.4219 19.5703 16.2292 19.375 15 19.375C13.7708 19.375 12.5885 19.5703 11.4531 19.9609C10.3177 20.3516 9.25 20.9155 8.25 21.6528V21.6562ZM14.9981 13.8438C14.364 13.8438 13.8255 13.6218 13.3828 13.1778C12.9401 12.7339 12.7188 12.1948 12.7188 11.5606C12.7188 10.9265 12.9407 10.388 13.3847 9.94531C13.8286 9.5026 14.3677 9.28125 15.0019 9.28125C15.636 9.28125 16.1745 9.50323 16.6172 9.94719C17.0599 10.3911 17.2812 10.9302 17.2812 11.5644C17.2812 12.1985 17.0593 12.737 16.6153 13.1797C16.1714 13.6224 15.6323 13.8438 14.9981 13.8438Z" fill="#909090"/>
</svg>
