<svg width="26" height="30" viewBox="0 0 26 30" fill="none" xmlns="http://www.w3.org/2000/svg">
<path d="M2.73795 29.25C1.97284 29.25 1.32524 28.9773 0.795146 28.4318C0.265049 27.8864 0 27.2201 0 26.4328V11.808C0 11.0207 0.265049 10.3544 0.795146 9.80896C1.32524 9.26352 1.97284 8.9908 2.73795 8.9908H23.262C24.0272 8.9908 24.6748 9.26352 25.2049 9.80896C25.735 10.3544 26 11.0207 26 11.808V26.4328C26 27.2201 25.735 27.8864 25.2049 28.4318C24.6748 28.9773 24.0272 29.25 23.262 29.25H2.73795ZM2.73795 26.9124H23.262C23.3787 26.9124 23.4854 26.8624 23.5824 26.7624C23.6796 26.6627 23.7282 26.5528 23.7282 26.4328V11.808C23.7282 11.688 23.6796 11.5781 23.5824 11.4784C23.4854 11.3784 23.3787 11.3284 23.262 11.3284H2.73795C2.62133 11.3284 2.51455 11.3784 2.41762 11.4784C2.32044 11.5781 2.27184 11.688 2.27184 11.808V26.4328C2.27184 26.5528 2.32044 26.6627 2.41762 26.7624C2.51455 26.8624 2.62133 26.9124 2.73795 26.9124ZM9.88673 24.6348L17.9257 19.1204L9.88673 13.606V24.6348ZM2.65049 6.8332V4.49559H23.3495V6.8332H2.65049ZM7.19417 2.3376V0H18.8058V2.3376H7.19417Z" fill="#909090"/>
</svg>
