<svg width="27" height="27" viewBox="0 0 27 27" fill="none" xmlns="http://www.w3.org/2000/svg">
<circle cx="13.5" cy="13.5" r="13.5" fill="#FF5B5B" fill-opacity="0.2"/>
<g clip-path="url(#clip0_2294_3129)">
<path d="M12.3748 16.333H13.7915V14.208H15.9165V12.7913H13.7915V10.6663H12.3748V12.7913H10.2498V14.208H12.3748V16.333ZM8.83317 19.1663C8.44359 19.1663 8.11008 19.0276 7.83265 18.7502C7.55522 18.4728 7.4165 18.1393 7.4165 17.7497V9.24967C7.4165 8.86009 7.55522 8.52658 7.83265 8.24915C8.11008 7.97172 8.44359 7.83301 8.83317 7.83301H17.3332C17.7228 7.83301 18.0563 7.97172 18.3337 8.24915C18.6111 8.52658 18.7498 8.86009 18.7498 9.24967V12.4372L21.5832 9.60384V17.3955L18.7498 14.5622V17.7497C18.7498 18.1393 18.6111 18.4728 18.3337 18.7502C18.0563 19.0276 17.7228 19.1663 17.3332 19.1663H8.83317ZM8.83317 17.7497H17.3332V9.24967H8.83317V17.7497Z" fill="#FF5B5B"/>
</g>
<defs>
<clipPath id="clip0_2294_3129">
<rect width="16" height="16" fill="white" transform="translate(6 5)"/>
</clipPath>
</defs>
</svg>
