<svg width="28" height="28" viewBox="0 0 28 28" fill="none" xmlns="http://www.w3.org/2000/svg">
<path d="M22.2759 23L17.6843 18.4083C17.0685 18.9009 16.3604 19.2909 15.56 19.5782C14.7595 19.8656 13.9077 20.0093 13.0046 20.0093C10.7674 20.0093 8.87404 19.2345 7.32442 17.6848C5.77481 16.1352 5 14.2418 5 12.0046C5 9.76744 5.77481 7.87404 7.32442 6.32442C8.87404 4.77481 10.7674 4 13.0046 4C15.2418 4 17.1352 4.77481 18.6848 6.32442C20.2345 7.87404 21.0093 9.76744 21.0093 12.0046C21.0093 12.9077 20.8656 13.7595 20.5782 14.56C20.2909 15.3604 19.9009 16.0685 19.4083 16.6843L24 21.2759L22.2759 23ZM13.0046 17.5463C14.544 17.5463 15.8524 17.0075 16.93 15.93C18.0075 14.8524 18.5463 13.544 18.5463 12.0046C18.5463 10.4653 18.0075 9.15683 16.93 8.07928C15.8524 7.00174 14.544 6.46296 13.0046 6.46296C11.4653 6.46296 10.1568 7.00174 9.07928 8.07928C8.00174 9.15683 7.46296 10.4653 7.46296 12.0046C7.46296 13.544 8.00174 14.8524 9.07928 15.93C10.1568 17.0075 11.4653 17.5463 13.0046 17.5463Z" fill="white"/>
</svg>
