<svg width="13" height="18" viewBox="0 0 13 18" fill="none" xmlns="http://www.w3.org/2000/svg">
<path d="M0.000105075 18V2.0001C-0.00253755 1.73729 0.0446919 1.47667 0.138898 1.23421C0.233103 0.991754 0.3723 0.772574 0.547953 0.590109C0.717384 0.400942 0.920906 0.251037 1.14604 0.149584C1.37118 0.0481302 1.61318 -0.00273278 1.85722 0.000113159H11.1428C11.3868 -0.00273278 11.6288 0.0481302 11.854 0.149584C12.0791 0.251037 12.2826 0.400942 12.452 0.590109C12.6277 0.772574 12.7669 0.991754 12.8611 1.23421C12.9553 1.47667 13.0025 1.73729 12.9999 2.0001V18L6.5 15L0.000105075 18ZM1.59722 15.31L6.5 13L11.4028 15.27V2.3601C11.4028 2.16914 11.3323 1.98601 11.207 1.85098C11.0816 1.71596 10.9115 1.6401 10.7342 1.6401H2.26578C2.08847 1.6401 1.91842 1.71596 1.79304 1.85098C1.66766 1.98601 1.59722 2.16914 1.59722 2.3601V15.31Z" fill="#909090"/>
</svg>
