<svg width="36" height="36" viewBox="0 0 36 36" fill="none" xmlns="http://www.w3.org/2000/svg">
<path d="M18 32C16.0633 32 14.2433 31.6325 12.54 30.8975C10.8367 30.1625 9.355 29.165 8.095 27.905C6.835 26.645 5.8375 25.1633 5.1025 23.46C4.3675 21.7567 4 19.9367 4 18C4 16.0633 4.3675 14.2433 5.1025 12.54C5.8375 10.8367 6.835 9.355 8.095 8.095C9.355 6.835 10.8367 5.8375 12.54 5.1025C14.2433 4.3675 16.0633 4 18 4C19.9367 4 21.7567 4.3675 23.46 5.1025C25.1633 5.8375 26.645 6.835 27.905 8.095C29.165 9.355 30.1625 10.8367 30.8975 12.54C31.6325 14.2433 32 16.0633 32 18C32 19.9367 31.6325 21.7567 30.8975 23.46C30.1625 25.1633 29.165 26.645 27.905 27.905C26.645 29.165 25.1633 30.1625 23.46 30.8975C21.7567 31.6325 19.9367 32 18 32ZM18 29.2C19.26 29.2 20.4733 28.9958 21.64 28.5875C22.8067 28.1792 23.88 27.59 24.86 26.82L9.18 11.14C8.41 12.12 7.82083 13.1933 7.4125 14.36C7.00417 15.5267 6.8 16.74 6.8 18C6.8 21.1267 7.885 23.775 10.055 25.945C12.225 28.115 14.8733 29.2 18 29.2ZM26.82 24.86C27.59 23.88 28.1792 22.8067 28.5875 21.64C28.9958 20.4733 29.2 19.26 29.2 18C29.2 14.8733 28.115 12.225 25.945 10.055C23.775 7.885 21.1267 6.8 18 6.8C16.74 6.8 15.5267 7.00417 14.36 7.4125C13.1933 7.82083 12.12 8.41 11.14 9.18L26.82 24.86Z" fill="#909090"/>
</svg>
