<svg width="30" height="30" viewBox="0 0 30 30" fill="none" xmlns="http://www.w3.org/2000/svg">
<path d="M17.5 25.9062V23.3438C19.375 22.8021 20.8854 21.7604 22.0312 20.2188C23.1771 18.6771 23.75 16.9271 23.75 14.9688C23.75 13.0104 23.1771 11.2604 22.0312 9.71875C20.8854 8.17708 19.375 7.13542 17.5 6.59375V4.03125C20.0833 4.61458 22.1875 5.92188 23.8125 7.95312C25.4375 9.98438 26.25 12.3229 26.25 14.9688C26.25 17.6146 25.4375 19.9531 23.8125 21.9844C22.1875 24.0156 20.0833 25.3229 17.5 25.9062ZM3.75 18.75V11.25H8.75L15 5V25L8.75 18.75H3.75ZM17.5 20V9.9375C18.4792 10.3958 19.2448 11.0833 19.7969 12C20.349 12.9167 20.625 13.9167 20.625 15C20.625 16.0625 20.349 17.0469 19.7969 17.9531C19.2448 18.8594 18.4792 19.5417 17.5 20ZM12.5 11.0625L9.8125 13.75H6.25V16.25H9.8125L12.5 18.9375V11.0625Z" fill="white"/>
</svg>
