<svg width="36" height="36" viewBox="0 0 36 36" fill="none" xmlns="http://www.w3.org/2000/svg">
<path d="M16.5938 31.125V28.3125H28.3313V17.85C28.3313 14.9875 27.325 12.5531 25.3125 10.5469C23.3 8.54063 20.8625 7.5375 18 7.5375C15.125 7.5375 12.6813 8.54063 10.6688 10.5469C8.65625 12.5531 7.65 14.9875 7.65 17.85V26.7375H6.24375C5.45625 26.7375 4.78125 26.4563 4.21875 25.8938C3.65625 25.3313 3.375 24.6563 3.375 23.8688V20.925C3.375 20.4125 3.50625 19.9375 3.76875 19.5C4.03125 19.0625 4.3875 18.7063 4.8375 18.4313L4.95 16.4813C5.1625 14.8313 5.65313 13.3 6.42188 11.8875C7.19063 10.475 8.15313 9.24688 9.30938 8.20313C10.4656 7.15938 11.7906 6.34375 13.2844 5.75625C14.7781 5.16875 16.35 4.875 18 4.875C19.65 4.875 21.2156 5.16875 22.6969 5.75625C24.1781 6.34375 25.5 7.15313 26.6625 8.18438C27.825 9.21563 28.7875 10.4344 29.55 11.8406C30.3125 13.2469 30.8063 14.775 31.0313 16.425L31.1438 18.375C31.5938 18.5875 31.9531 18.9063 32.2219 19.3313C32.4906 19.7563 32.625 20.2188 32.625 20.7188V24.075C32.625 24.575 32.4906 25.0375 32.2219 25.4625C31.9531 25.8875 31.5938 26.2063 31.1438 26.4188V28.3125C31.1438 29.0875 30.8688 29.75 30.3188 30.3C29.7688 30.85 29.1063 31.125 28.3313 31.125H16.5938ZM13.5938 20.8688C13.2063 20.8688 12.875 20.7313 12.6 20.4563C12.325 20.1813 12.1875 19.85 12.1875 19.4625C12.1875 19.075 12.325 18.7438 12.6 18.4688C12.875 18.1938 13.2063 18.0563 13.5938 18.0563C13.9813 18.0563 14.3125 18.1938 14.5875 18.4688C14.8625 18.7438 15 19.075 15 19.4625C15 19.85 14.8625 20.1813 14.5875 20.4563C14.3125 20.7313 13.9813 20.8688 13.5938 20.8688ZM22.4063 20.8688C22.0188 20.8688 21.6875 20.7313 21.4125 20.4563C21.1375 20.1813 21 19.85 21 19.4625C21 19.075 21.1375 18.7438 21.4125 18.4688C21.6875 18.1938 22.0188 18.0563 22.4063 18.0563C22.7938 18.0563 23.125 18.1938 23.4 18.4688C23.675 18.7438 23.8125 19.075 23.8125 19.4625C23.8125 19.85 23.675 20.1813 23.4 20.4563C23.125 20.7313 22.7938 20.8688 22.4063 20.8688ZM9.28125 18.5813C9.16875 16.0313 9.96875 13.8406 11.6813 12.0094C13.3938 10.1781 15.5188 9.2625 18.0563 9.2625C20.2063 9.2625 22.1 9.94375 23.7375 11.3063C25.375 12.6688 26.375 14.4063 26.7375 16.5188C24.5125 16.4813 22.4594 15.8875 20.5781 14.7375C18.6969 13.5875 17.2625 12.0125 16.275 10.0125C15.8875 11.95 15.0781 13.6719 13.8469 15.1781C12.6156 16.6844 11.0938 17.8188 9.28125 18.5813Z" fill="#909090"/>
</svg>
