<svg width="28" height="28" viewBox="0 0 28 28" fill="none" xmlns="http://www.w3.org/2000/svg">
<path fill-rule="evenodd" clip-rule="evenodd" d="M11.7796 22.2077C12.3984 23.2884 13.7663 23.6569 14.8342 23.031C15.1721 22.8331 15.4531 22.5489 15.6487 22.2067C16.0679 21.4784 16.6787 20.5688 17.6279 20.0126C18.5841 19.4538 19.6655 19.3817 20.4939 19.3791C21.7296 19.3791 22.7317 18.3656 22.7312 17.1159C22.7312 16.7191 22.6278 16.329 22.4317 15.9852C22.019 15.2569 21.5414 14.2696 21.5414 13.1556C21.5414 12.0406 22.019 11.0528 22.4327 10.3245C23.049 9.24282 22.6817 7.86032 21.6118 7.23695C21.2729 7.0396 20.8892 6.93562 20.4979 6.93511C19.667 6.93158 18.5856 6.85839 17.6294 6.29812C16.6787 5.74189 16.0674 4.83234 15.6477 4.10399C15.0294 3.02333 13.6615 2.65436 12.593 3.28024C12.2552 3.4781 11.9742 3.76228 11.7786 4.10399C11.3594 4.83234 10.7485 5.74189 9.79935 6.29812C8.84318 6.85688 7.76174 6.92906 6.93333 6.93158C5.69769 6.93158 4.6956 7.94511 4.6961 9.19487C4.6961 9.5916 4.7994 9.98176 4.99553 10.3255C5.40824 11.0538 5.88583 12.0411 5.88583 13.1551C5.88583 14.2701 5.40824 15.2579 4.99453 15.9862C4.37771 17.0679 4.74451 18.4504 5.81346 19.0743C6.15282 19.2721 6.53708 19.3766 6.92883 19.3766C7.75875 19.3786 8.84118 19.4523 9.79735 20.0121C10.748 20.5683 11.3584 21.4779 11.7791 22.2062V22.2077H11.7796ZM13.7144 25C12.1968 25.0005 10.794 24.1843 10.0319 22.8573C9.67209 22.2305 9.32077 21.7827 8.91953 21.547C8.52029 21.3133 7.97184 21.2346 7.24822 21.2326C4.89672 21.227 2.99485 19.2948 3.00034 16.917C3.00183 16.1669 3.19746 15.4305 3.56676 14.7804C3.92557 14.1459 4.13317 13.623 4.13317 13.1556C4.13317 12.6882 3.92557 12.1648 3.56676 11.5318C2.39499 9.46844 3.09865 6.83517 5.13825 5.65003C5.78202 5.27601 6.51113 5.07866 7.25321 5.07765C7.97484 5.07563 8.52229 4.99588 8.92053 4.76319C9.32176 4.52848 9.67209 4.08027 10.0309 3.4559C11.2097 1.39804 13.8147 0.696445 15.8493 1.88916C16.4911 2.2652 17.0251 2.80477 17.3973 3.45388C17.7572 4.08077 18.1085 4.52848 18.5097 4.7642C18.909 4.9979 19.4574 5.07664 20.181 5.07966C22.5325 5.08522 24.4339 7.01789 24.4284 9.39626C24.4264 10.1453 24.2318 10.8812 23.8625 11.5308C23.5037 12.1653 23.2961 12.6882 23.2961 13.1556C23.2961 13.623 23.5037 14.1464 23.8615 14.7794C25.0333 16.8428 24.3296 19.4761 22.29 20.6612C21.6467 21.0352 20.9181 21.2326 20.176 21.2336C19.4544 21.2356 18.907 21.3153 18.5087 21.548C18.1075 21.7827 17.7572 22.231 17.3983 22.8553C16.6358 24.1833 15.2325 25.0005 13.7144 25ZM11.0829 13.1551C11.0829 14.6249 12.2611 15.8166 13.7144 15.8166C15.1676 15.8166 16.3458 14.6249 16.3458 13.1551C16.3458 11.6853 15.1676 10.4936 13.7144 10.4936C12.2611 10.4936 11.0829 11.6853 11.0829 13.1551ZM13.7144 17.4626C11.3624 17.4626 9.45601 15.534 9.45601 13.1556C9.45601 10.7772 11.3624 8.8481 13.7144 8.8481C16.0664 8.8481 17.9727 10.7767 17.9727 13.1551C17.9727 15.5335 16.0664 17.4626 13.7144 17.4626Z" fill="white"/>
</svg>
