<svg width="19" height="20" viewBox="0 0 19 20" fill="none" xmlns="http://www.w3.org/2000/svg">
<path d="M17.3105 15.9621L14.3895 13.0411C15.2802 11.8799 15.7622 10.4569 15.7604 8.9934C15.7604 7.20553 15.0642 5.52529 13.8 4.26116C13.1801 3.63773 12.4426 3.14345 11.6303 2.80696C10.818 2.47046 9.94702 2.29842 9.06779 2.30081C7.28037 2.30081 5.60012 2.99704 4.33555 4.26116C1.72669 6.87047 1.72669 11.1163 4.33555 13.7256C4.95551 14.3491 5.69299 14.8434 6.50529 15.1799C7.31758 15.5164 8.18856 15.6884 9.06779 15.686C10.5512 15.686 11.9568 15.2001 13.116 14.3147L16.0369 17.2361C16.2125 17.4117 16.4431 17.5 16.6737 17.5C16.9043 17.5 17.1348 17.4117 17.3105 17.2361C17.3942 17.1525 17.4605 17.0531 17.5058 16.9438C17.5511 16.8345 17.5744 16.7174 17.5744 16.5991C17.5744 16.4808 17.5511 16.3636 17.5058 16.2543C17.4605 16.145 17.3942 16.0457 17.3105 15.9621ZM5.60958 12.4521C3.70236 10.5448 3.70281 7.44196 5.60958 5.53474C6.06279 5.07926 6.60183 4.71816 7.1955 4.47234C7.78917 4.22652 8.42569 4.10087 9.06824 4.10264C9.71072 4.10088 10.3472 4.22654 10.9408 4.47236C11.5344 4.71818 12.0733 5.07927 12.5265 5.53474C12.9821 5.98789 13.3433 6.5269 13.5892 7.12058C13.8351 7.71426 13.9608 8.35082 13.959 8.9934C13.959 10.2999 13.4501 11.528 12.5265 12.4521C11.6028 13.3762 10.3747 13.8842 9.06779 13.8842C7.76179 13.8842 6.53324 13.3753 5.60913 12.4521H5.60958Z" fill="#909090"/>
</svg>
