<svg width="22" height="24" viewBox="0 0 22 24" fill="none" xmlns="http://www.w3.org/2000/svg">
<path fill-rule="evenodd" clip-rule="evenodd" d="M8.77957 21.2077C9.39839 22.2884 10.7663 22.6569 11.8342 22.031C12.1721 21.8331 12.4531 21.5489 12.6487 21.2067C13.0679 20.4784 13.6787 19.5688 14.6279 19.0126C15.5841 18.4538 16.6655 18.3817 17.4939 18.3791C18.7296 18.3791 19.7317 17.3656 19.7312 16.1159C19.7312 15.7191 19.6278 15.329 19.4317 14.9852C19.019 14.2569 18.5414 13.2696 18.5414 12.1556C18.5414 11.0406 19.019 10.0528 19.4327 9.32449C20.049 8.24282 19.6817 6.86032 18.6118 6.23695C18.2729 6.0396 17.8892 5.93562 17.4979 5.93511C16.667 5.93158 15.5856 5.85839 14.6294 5.29812C13.6787 4.74189 13.0674 3.83234 12.6477 3.10399C12.0294 2.02333 10.6615 1.65436 9.59302 2.28024C9.25516 2.4781 8.9742 2.76228 8.77857 3.10399C8.35937 3.83234 7.74854 4.74189 6.79935 5.29812C5.84318 5.85688 4.76174 5.92906 3.93333 5.93158C2.69769 5.93158 1.6956 6.94511 1.6961 8.19487C1.6961 8.5916 1.7994 8.98176 1.99553 9.3255C2.40824 10.0538 2.88583 11.0411 2.88583 12.1551C2.88583 13.2701 2.40824 14.2579 1.99453 14.9862C1.37771 16.0679 1.74451 17.4504 2.81346 18.0743C3.15282 18.2721 3.53708 18.3766 3.92883 18.3766C4.75875 18.3786 5.84118 18.4523 6.79735 19.0121C7.74804 19.5683 8.35837 20.4779 8.77907 21.2062V21.2077H8.77957ZM10.7144 24C9.19677 24.0005 7.79395 23.1843 7.03191 21.8573C6.67209 21.2305 6.32077 20.7827 5.91953 20.547C5.52029 20.3133 4.97184 20.2346 4.24822 20.2326C1.89672 20.227 -0.00515217 18.2948 0.000337344 15.917C0.00183448 15.1669 0.197461 14.4305 0.566755 13.7804C0.92557 13.1459 1.13317 12.623 1.13317 12.1556C1.13317 11.6882 0.92557 11.1648 0.566755 10.5318C-0.605006 8.46844 0.0986496 5.83517 2.13825 4.65003C2.78202 4.27601 3.51113 4.07866 4.25321 4.07765C4.97484 4.07563 5.52229 3.99588 5.92053 3.76319C6.32176 3.52848 6.67209 3.08027 7.03091 2.4559C8.20966 0.398043 10.8147 -0.303555 12.8493 0.889162C13.4911 1.2652 14.0251 1.80477 14.3973 2.45388C14.7572 3.08077 15.1085 3.52848 15.5097 3.7642C15.909 3.9979 16.4574 4.07664 17.181 4.07966C19.5325 4.08522 21.4339 6.01789 21.4284 8.39626C21.4264 9.1453 21.2318 9.88122 20.8625 10.5308C20.5037 11.1653 20.2961 11.6882 20.2961 12.1556C20.2961 12.623 20.5037 13.1464 20.8615 13.7794C22.0333 15.8428 21.3296 18.4761 19.29 19.6612C18.6467 20.0352 17.9181 20.2326 17.176 20.2336C16.4544 20.2356 15.907 20.3153 15.5087 20.548C15.1075 20.7827 14.7572 21.231 14.3983 21.8553C13.6358 23.1833 12.2325 24.0005 10.7144 24ZM8.0829 12.1551C8.0829 13.6249 9.26115 14.8166 10.7144 14.8166C12.1676 14.8166 13.3458 13.6249 13.3458 12.1551C13.3458 10.6853 12.1676 9.49358 10.7144 9.49358C9.26115 9.49358 8.0829 10.6853 8.0829 12.1551ZM10.7144 16.4626C8.36237 16.4626 6.45601 14.534 6.45601 12.1556C6.45601 9.77725 8.36237 7.8481 10.7144 7.8481C13.0664 7.8481 14.9727 9.77674 14.9727 12.1551C14.9727 14.5335 13.0664 16.4626 10.7144 16.4626Z" fill="white"/>
</svg>
