<svg width="22" height="22" viewBox="0 0 22 22" fill="none" xmlns="http://www.w3.org/2000/svg">
<path d="M16.3854 19.0211H6.53128V7.47109L12.7875 1.21484L13.8646 2.26901C13.9639 2.38359 14.046 2.52598 14.111 2.69618C14.1759 2.86652 14.2084 3.02969 14.2084 3.18568V3.48359L13.2229 7.47109H19.1355C19.5861 7.47109 19.9853 7.64488 20.3328 7.99245C20.6804 8.34002 20.8542 8.73915 20.8542 9.18984V10.9787C20.8542 11.0831 20.8427 11.1948 20.8198 11.314C20.7969 11.4333 20.7702 11.5426 20.7396 11.6419L18.0354 17.944C17.9056 18.2496 17.6822 18.5055 17.3651 18.7117C17.0481 18.918 16.7216 19.0211 16.3854 19.0211ZM8.25003 17.3023H16.4313L19.1355 11.0117V9.18984H11.0459L12.249 4.19401L8.25003 8.19297V17.3023ZM6.53128 7.47109V9.18984H3.8042V17.3023H6.53128V19.0211H2.08545V7.47109H6.53128Z" fill="#909090"/>
</svg>
