<svg width="20" height="21" viewBox="0 0 20 21" fill="none" xmlns="http://www.w3.org/2000/svg">
<path d="M12.7503 13.4844L13.917 12.3177L10.8337 9.23438V5.40104H9.16699V9.90104L12.7503 13.4844ZM10.0003 17.901C8.84755 17.901 7.76421 17.6823 6.75033 17.2448C5.73644 16.8073 4.85449 16.2135 4.10449 15.4635C3.35449 14.7135 2.76074 13.8316 2.32324 12.8177C1.88574 11.8038 1.66699 10.7205 1.66699 9.56771C1.66699 8.41493 1.88574 7.3316 2.32324 6.31771C2.76074 5.30382 3.35449 4.42188 4.10449 3.67188C4.85449 2.92188 5.73644 2.32813 6.75033 1.89063C7.76421 1.45313 8.84755 1.23438 10.0003 1.23438C11.1531 1.23438 12.2364 1.45313 13.2503 1.89063C14.2642 2.32813 15.1462 2.92188 15.8962 3.67188C16.6462 4.42188 17.2399 5.30382 17.6774 6.31771C18.1149 7.3316 18.3337 8.41493 18.3337 9.56771C18.3337 10.7205 18.1149 11.8038 17.6774 12.8177C17.2399 13.8316 16.6462 14.7135 15.8962 15.4635C15.1462 16.2135 14.2642 16.8073 13.2503 17.2448C12.2364 17.6823 11.1531 17.901 10.0003 17.901ZM10.0003 16.2344C11.8475 16.2344 13.4205 15.5851 14.7191 14.2865C16.0177 12.9878 16.667 11.4149 16.667 9.56771C16.667 7.72049 16.0177 6.14757 14.7191 4.84896C13.4205 3.55035 11.8475 2.90104 10.0003 2.90104C8.1531 2.90104 6.58019 3.55035 5.28158 4.84896C3.98296 6.14757 3.33366 7.72049 3.33366 9.56771C3.33366 11.4149 3.98296 12.9878 5.28158 14.2865C6.58019 15.5851 8.1531 16.2344 10.0003 16.2344Z" fill="#909090"/>
</svg>
