<svg width="20" height="20" viewBox="0 0 20 20" fill="none" xmlns="http://www.w3.org/2000/svg">
<path d="M12.7503 13.916L13.917 12.7494L10.8337 9.66602V5.83268H9.16699V10.3327L12.7503 13.916ZM10.0003 18.3327C8.84755 18.3327 7.76421 18.1139 6.75033 17.6764C5.73644 17.2389 4.85449 16.6452 4.10449 15.8952C3.35449 15.1452 2.76074 14.2632 2.32324 13.2494C1.88574 12.2355 1.66699 11.1521 1.66699 9.99935C1.66699 8.84657 1.88574 7.76324 2.32324 6.74935C2.76074 5.73546 3.35449 4.85352 4.10449 4.10352C4.85449 3.35352 5.73644 2.75977 6.75033 2.32227C7.76421 1.88477 8.84755 1.66602 10.0003 1.66602C11.1531 1.66602 12.2364 1.88477 13.2503 2.32227C14.2642 2.75977 15.1462 3.35352 15.8962 4.10352C16.6462 4.85352 17.2399 5.73546 17.6774 6.74935C18.1149 7.76324 18.3337 8.84657 18.3337 9.99935C18.3337 11.1521 18.1149 12.2355 17.6774 13.2494C17.2399 14.2632 16.6462 15.1452 15.8962 15.8952C15.1462 16.6452 14.2642 17.2389 13.2503 17.6764C12.2364 18.1139 11.1531 18.3327 10.0003 18.3327ZM10.0003 16.666C11.8475 16.666 13.4205 16.0167 14.7191 14.7181C16.0177 13.4195 16.667 11.8466 16.667 9.99935C16.667 8.15213 16.0177 6.57921 14.7191 5.2806C13.4205 3.98199 11.8475 3.33268 10.0003 3.33268C8.1531 3.33268 6.58019 3.98199 5.28158 5.2806C3.98296 6.57921 3.33366 8.15213 3.33366 9.99935C3.33366 11.8466 3.98296 13.4195 5.28158 14.7181C6.58019 16.0167 8.1531 16.666 10.0003 16.666Z" fill="#909090"/>
</svg>
