<svg width="26" height="27" viewBox="0 0 26 27" fill="none" xmlns="http://www.w3.org/2000/svg">
<path d="M18.3441 26.1922V23.276C17.1657 22.9351 16.162 22.3082 15.333 21.3952C14.504 20.4823 13.9969 19.4092 13.8119 18.176H15.8159C16.054 19.142 16.5541 19.9402 17.3163 20.5705C18.0785 21.2009 18.9778 21.5161 20.0141 21.5161H24.0222C24.4847 21.5161 24.8786 21.6789 25.2039 22.0044C25.5295 22.3298 25.6922 22.7237 25.6922 23.1862V26.1922H18.3441ZM22.0181 19.5121C21.3691 19.5121 20.817 19.2847 20.3621 18.83C19.9074 18.3751 19.6801 17.8231 19.6801 17.174C19.6801 16.5249 19.9074 15.9729 20.3621 15.518C20.817 15.0633 21.3691 14.836 22.0181 14.836C22.6672 14.836 23.2192 15.0633 23.6742 15.518C24.1289 15.9729 24.3562 16.5249 24.3562 17.174C24.3562 17.8231 24.1289 18.3751 23.6742 18.83C23.2192 19.2847 22.6672 19.5121 22.0181 19.5121ZM9.50587 15.838C9.50587 12.8747 10.5421 10.3589 12.6145 8.29073C14.6871 6.22256 17.205 5.18847 20.1681 5.18847V7.19218C17.7599 7.19218 15.7147 8.0311 14.0327 9.70893C12.3506 11.3868 11.5096 13.4298 11.5096 15.838H9.50587ZM14.1816 15.838C14.1816 14.1782 14.7645 12.7656 15.9302 11.6001C17.0959 10.4344 18.5085 9.85155 20.1681 9.85155V11.8556C19.0634 11.8556 18.1235 12.2432 17.3484 13.0183C16.5733 13.7932 16.1857 14.7331 16.1857 15.838H14.1816ZM0.307617 12.1639V9.15782C0.307617 8.69533 0.470391 8.30142 0.795937 7.9761C1.12126 7.65055 1.51517 7.48778 1.97766 7.48778H5.98575C7.02207 7.48778 7.92133 7.17259 8.68354 6.5422C9.44574 5.91204 9.94587 5.11387 10.1839 4.1477H12.201C12.0331 5.36393 11.5325 6.43276 10.6993 7.35418C9.86582 8.27582 8.85132 8.90698 7.65579 9.24767V12.1639H0.307617ZM3.98171 5.48373C3.33262 5.48373 2.78061 5.25638 2.32569 4.80169C1.871 4.34677 1.64365 3.79476 1.64365 3.14567C1.64365 2.49658 1.871 1.94458 2.32569 1.48966C2.78061 1.03496 3.33262 0.807617 3.98171 0.807617C4.6308 0.807617 5.1828 1.03496 5.63772 1.48966C6.09241 1.94458 6.31976 2.49658 6.31976 3.14567C6.31976 3.79476 6.09241 4.34677 5.63772 4.80169C5.1828 5.25638 4.6308 5.48373 3.98171 5.48373Z" fill="white"/>
</svg>
