<svg width="28" height="22" viewBox="0 0 28 22" fill="none" xmlns="http://www.w3.org/2000/svg">
<path d="M7.74719 21.7689C6.77156 21.7689 5.94323 21.4277 5.26219 20.7454C4.58094 20.0629 4.24031 19.2343 4.24031 18.2595H3.13469C2.51323 18.2595 1.98125 18.0382 1.53875 17.5957C1.09625 17.1532 0.875 16.6213 0.875 15.9998V9.74981H14.625V5.13449C14.625 4.51304 14.8462 3.98106 15.2887 3.53856C15.7312 3.09606 16.2632 2.87481 16.8847 2.87481H19.3125V1.93731C19.3125 1.61731 19.4207 1.34897 19.6372 1.13231C19.8539 0.915847 20.1222 0.807617 20.4422 0.807617H21.3078C21.6278 0.807617 21.8961 0.915847 22.1128 1.13231C22.3293 1.34897 22.4375 1.61731 22.4375 1.93731V2.87481H23.1609C23.6505 2.87481 24.093 3.01574 24.4884 3.29762C24.8839 3.57949 25.1569 3.95543 25.3075 4.42543L27.0156 9.48668C27.0548 9.60439 27.0828 9.72314 27.0997 9.84293C27.1166 9.96272 27.125 10.0871 27.125 10.2161V18.2595H23.7597C23.7597 19.2343 23.4181 20.0629 22.735 20.7454C22.0521 21.4277 21.2228 21.7689 20.2472 21.7689C19.2716 21.7689 18.4432 21.4277 17.7622 20.7454C17.0809 20.0629 16.7403 19.2343 16.7403 18.2595H11.2597C11.2597 19.237 10.9181 20.0663 10.235 20.7473C9.55208 21.4283 8.72281 21.7689 7.74719 21.7689ZM7.75 19.8942C8.20833 19.8942 8.59531 19.7363 8.91094 19.4204C9.22677 19.1048 9.38469 18.7198 9.38469 18.2654C9.38469 17.8111 9.22677 17.424 8.91094 17.1042C8.59531 16.7846 8.20833 16.6248 7.75 16.6248C7.29167 16.6248 6.90469 16.7846 6.58906 17.1042C6.27323 17.424 6.11531 17.8111 6.11531 18.2654C6.11531 18.7198 6.27323 19.1048 6.58906 19.4204C6.90469 19.7363 7.29167 19.8942 7.75 19.8942ZM20.25 19.8942C20.7083 19.8942 21.0953 19.7363 21.4109 19.4204C21.7268 19.1048 21.8847 18.7198 21.8847 18.2654C21.8847 17.8111 21.7268 17.424 21.4109 17.1042C21.0953 16.7846 20.7083 16.6248 20.25 16.6248C19.7917 16.6248 19.4047 16.7846 19.0891 17.1042C18.7732 17.424 18.6153 17.8111 18.6153 18.2654C18.6153 18.7198 18.7732 19.1048 19.0891 19.4204C19.4047 19.7363 19.7917 19.8942 20.25 19.8942ZM2.75 11.6248V15.9998C2.75 16.1121 2.78604 16.2043 2.85812 16.2764C2.93021 16.3485 3.0224 16.3845 3.13469 16.3845H4.88469C5.17469 15.8845 5.57333 15.487 6.08063 15.192C6.58771 14.8972 7.14417 14.7498 7.75 14.7498C8.35583 14.7498 8.91229 14.8972 9.41938 15.192C9.92667 15.487 10.3253 15.8845 10.6153 16.3845H14.625V11.6248H2.75ZM16.5 16.3845H17.3847C17.6747 15.8845 18.0733 15.487 18.5806 15.192C19.0877 14.8972 19.6442 14.7498 20.25 14.7498C20.8558 14.7498 21.4123 14.8972 21.9194 15.192C22.4267 15.487 22.8253 15.8845 23.1153 16.3845H25.25V11.6248H16.5V16.3845ZM16.5 9.74981H25.125L23.5338 5.01418C23.5096 4.93418 23.4634 4.87012 23.3953 4.82199C23.3272 4.77387 23.2491 4.74981 23.1609 4.74981H16.8847C16.7724 4.74981 16.6802 4.78585 16.6081 4.85793C16.536 4.93002 16.5 5.0222 16.5 5.13449V9.74981ZM0.875 8.49981V7.00949H2.125V4.36512H0.875V2.87481H12.9903V4.36512H11.7403V7.00949H12.9903V8.49981H0.875ZM3.61531 7.00949H6.1875V4.36512H3.61531V7.00949ZM7.67781 7.00949H10.25V4.36512H7.67781V7.00949Z" fill="white"/>
</svg>
